<svg width="66" height="49" viewBox="0 0 66 49" fill="none" xmlns="http://www.w3.org/2000/svg">
<path d="M64.1577 8.42188C63.5476 5.05432 60.6406 2.60193 57.267 1.8363C52.2186 0.765625 42.8755 0 32.7667 0C22.6639 0 13.1713 0.765625 8.11691 1.8363C4.74932 2.60193 1.83632 4.8988 1.22621 8.42188C0.610115 12.25 0 17.6094 0 24.5C0 31.3906 0.610115 36.75 1.37575 40.5781C1.99184 43.9457 4.89886 46.3981 8.26645 47.1637C13.6259 48.2344 22.8135 49 32.9222 49C43.031 49 52.2186 48.2344 57.578 47.1637C60.9456 46.3981 63.8526 44.1012 64.4687 40.5781C65.0788 36.75 65.8445 31.2351 66 24.5C65.689 17.6094 64.9233 12.25 64.1577 8.42188ZM24.5003 35.2188V13.7812L43.1805 24.5L24.5003 35.2188Z" fill="#FF0000"/>
</svg>
