<svg width="224" height="64" viewBox="0 0 224 64" fill="none" xmlns="http://www.w3.org/2000/svg">
<g clip-path="url(#clip0_111_52)">
<path d="M192 0H32C14.3269 0 0 14.3269 0 32C0 49.6731 14.3269 64 32 64H192C209.673 64 224 49.6731 224 32C224 14.3269 209.673 0 192 0Z" fill="#B8FF59"/>
<path d="M32.5452 31.8182V28.3636H35.9998V31.8182H32.5452ZM18.7271 42.1818V24.9091H22.1816V28.3636H25.6361V31.8182H22.1816V42.1818H18.7271ZM25.6361 28.3636V24.9091H32.5452V28.3636H25.6361ZM39.4543 38.7273V35.2727H42.9089V38.7273H39.4543ZM42.9089 42.1818V38.7273H53.2725V35.2727H42.9089V31.8182H53.2725V28.3636H56.727V42.1818H42.9089ZM42.9089 28.3636V24.9091H53.2725V28.3636H42.9089ZM60.1816 42.1818V38.7273H63.6361V35.2727H67.0907V38.7273H77.4543V42.1818H60.1816ZM67.0907 35.2727V31.8182H70.5452V35.2727H67.0907ZM70.5452 31.8182V28.3636H60.1816V24.9091H77.4543V28.3636H73.9998V31.8182H70.5452ZM84.3634 42.1818V38.7273H94.727V42.1818H84.3634ZM80.9089 38.7273V28.3636H84.3634V38.7273H80.9089ZM94.727 38.7273V28.3636H98.1816V38.7273H94.727ZM84.3634 28.3636V24.9091H94.727V28.3636H84.3634ZM105.091 42.1818V38.7273H115.454V42.1818H105.091ZM101.636 38.7273V28.3636H105.091V38.7273H101.636ZM115.454 38.7273V28.3636H118.909V38.7273H115.454ZM105.091 28.3636V24.9091H115.454V28.3636H105.091ZM129.272 35.2727V28.3636H132.727V35.2727H129.272ZM136.182 42.1818V28.3636H139.636V42.1818H136.182ZM122.363 42.1818V24.9091H129.272V28.3636H125.818V42.1818H122.363ZM132.727 28.3636V24.9091H136.182V28.3636H132.727ZM143.091 42.1818V35.2727H146.545V42.1818H143.091ZM150 38.7273V35.2727H153.454V38.7273H150ZM153.454 42.1818V38.7273H163.818V35.2727H153.454V31.8182H163.818V28.3636H167.272V42.1818H153.454ZM153.454 28.3636V24.9091H163.818V28.3636H153.454ZM184.545 31.8182V28.3636H188V31.8182H184.545ZM170.727 42.1818V24.9091H174.182V28.3636H177.636V31.8182H174.182V42.1818H170.727ZM177.636 28.3636V24.9091H184.545V28.3636H177.636ZM198.363 42.1818V38.7273H201.818V42.1818H198.363ZM194.909 38.7273V28.3636H191.454V24.9091H194.909V18H198.363V24.9091H201.818V28.3636H198.363V38.7273H194.909Z" fill="#201F1E"/>
</g>
<defs>
<clipPath id="clip0_111_52">
<rect width="224" height="64" fill="white"/>
</clipPath>
</defs>
</svg>
