<svg width="224" height="64" viewBox="0 0 224 64" fill="none" xmlns="http://www.w3.org/2000/svg">
<g clip-path="url(#clip0_111_58)">
<path d="M192 0H32C14.3269 0 0 14.3269 0 32C0 49.6731 14.3269 64 32 64H192C209.673 64 224 49.6731 224 32C224 14.3269 209.673 0 192 0Z" fill="#B8FF59"/>
<path d="M47.4841 23.9272C44.8281 23.9272 42.7481 25.0792 41.5641 27.0312H41.2761V24.5672H38.6201V48.0872H41.2761V38.3272H41.5641C42.7481 40.2472 44.9241 41.3672 47.5161 41.3672C52.2201 41.3672 55.8361 37.6872 55.8361 32.6312C55.8361 27.5752 52.1881 23.9272 47.4841 23.9272ZM47.1961 26.3272C50.6521 26.3272 53.1801 29.0152 53.1801 32.6312C53.1801 36.1832 50.6521 38.9672 47.1961 38.9672C43.7081 38.9672 41.1801 36.1832 41.1801 32.6312C41.1801 29.0792 43.7081 26.3272 47.1961 26.3272ZM64.4447 41.2392C67.0367 41.2392 68.9247 40.2152 70.0767 38.3592H70.3647V40.7272H73.0207V30.0072C73.0207 26.3272 70.3647 23.9592 66.1727 23.9592C62.1087 23.9592 59.4527 26.1352 59.4527 29.5592H62.1407C62.1087 27.5432 63.7087 26.3592 66.1407 26.3592C68.7967 26.3592 70.3647 27.7672 70.3647 29.9432V30.5832L65.8847 31.1272C61.0847 31.6712 58.6527 33.7832 58.6527 36.6312C58.6527 39.4152 60.9567 41.2392 64.4447 41.2392ZM64.8287 39.0312C62.6527 39.0312 61.3087 38.1032 61.3087 36.5672C61.3087 35.0632 62.5887 33.7832 65.8847 33.3672L70.3647 32.8552V34.2952C70.3647 37.0152 68.1247 39.0312 64.8287 39.0312ZM83.8601 41.3672C87.6361 41.3672 90.3561 39.2872 90.3561 36.2472C90.3561 34.2632 89.1721 32.8232 87.2521 32.4072V32.0872C88.9161 31.6712 89.9081 30.5192 89.9081 28.7592C89.9081 25.8792 87.2521 23.9272 83.6361 23.9272C79.7321 23.9272 76.9801 26.2312 77.0121 29.4312H79.5721C79.5721 27.6072 81.2041 26.3272 83.5721 26.3272C85.7481 26.3272 87.3161 27.3512 87.3161 28.8872C87.3161 30.2312 86.1001 31.1592 84.4041 31.1592H81.4921V33.5592H84.3721C86.2921 33.5592 87.7001 34.3912 87.7001 36.0552C87.7001 37.7832 86.1001 38.9672 83.8281 38.9672C81.2361 38.9672 79.4121 37.4312 79.4121 35.2872H76.7561C76.7561 38.8072 79.7321 41.3672 83.8601 41.3672ZM95.6882 47.8952C99.1762 47.8952 100.456 44.5672 101.896 40.9832L108.296 24.5672H105.448L100.712 37.2072H100.392L94.8562 24.5672H92.0722L99.2722 40.6952C98.3122 42.9672 97.6722 45.5272 95.2722 45.5272C94.6642 45.5272 93.8642 45.3352 93.1282 45.0472V47.3832C93.8642 47.7032 94.8882 47.8952 95.6882 47.8952ZM111.183 40.7272H113.839V28.2792H114.127L119.887 40.7272H122.255L128.015 28.2792H128.335V40.7272H130.991V24.5672H127.119L121.199 37.3992H120.879L115.023 24.5672H111.183V40.7272ZM140.413 41.2392C143.005 41.2392 144.893 40.2152 146.045 38.3592H146.333V40.7272H148.989V30.0072C148.989 26.3272 146.333 23.9592 142.141 23.9592C138.077 23.9592 135.421 26.1352 135.421 29.5592H138.109C138.077 27.5432 139.677 26.3592 142.109 26.3592C144.765 26.3592 146.333 27.7672 146.333 29.9432V30.5832L141.853 31.1272C137.053 31.6712 134.621 33.7832 134.621 36.6312C134.621 39.4152 136.925 41.2392 140.413 41.2392ZM140.797 39.0312C138.621 39.0312 137.277 38.1032 137.277 36.5672C137.277 35.0632 138.557 33.7832 141.853 33.3672L146.333 32.8552V34.2952C146.333 37.0152 144.093 39.0312 140.797 39.0312ZM162.452 23.9272C159.796 23.9272 157.716 25.0792 156.532 27.0312H156.244V24.5672H153.588V48.0872H156.244V38.3272H156.532C157.716 40.2472 159.892 41.3672 162.484 41.3672C167.188 41.3672 170.804 37.6872 170.804 32.6312C170.804 27.5752 167.156 23.9272 162.452 23.9272ZM162.164 26.3272C165.62 26.3272 168.148 29.0152 168.148 32.6312C168.148 36.1832 165.62 38.9672 162.164 38.9672C158.676 38.9672 156.148 36.1832 156.148 32.6312C156.148 29.0792 158.676 26.3272 162.164 26.3272ZM178.685 40.7272H181.341V26.9672H187.165V24.5672H172.829V26.9672H178.685V40.7272Z" fill="#201F1E"/>
</g>
<defs>
<clipPath id="clip0_111_58">
<rect width="224" height="64" fill="white"/>
</clipPath>
</defs>
</svg>
