<svg width="224" height="64" viewBox="0 0 224 64" fill="none" xmlns="http://www.w3.org/2000/svg">
<g clip-path="url(#clip0_111_55)">
<path d="M192 0H32C14.3269 0 0 14.3269 0 32C0 49.6731 14.3269 64 32 64H192C209.673 64 224 49.6731 224 32C224 14.3269 209.673 0 192 0Z" fill="#B8FF59"/>
<path d="M29.3047 34.9319C29.1797 34.661 29.0756 34.4423 28.9922 34.2757C28.9297 34.109 28.8984 33.9111 28.8984 33.6818C28.8984 33.4943 28.9192 33.3278 28.961 33.1819C29.0235 33.0152 29.0546 32.8382 29.0546 32.6507C29.0546 32.1924 29.0338 31.7652 28.9922 31.3694C28.9713 30.9736 28.9402 30.5361 28.8984 30.057C28.8776 29.9944 28.8048 29.9423 28.6797 29.9006C28.5547 29.859 28.4193 29.8069 28.2734 29.7444C28.1277 29.661 27.9922 29.5466 27.8672 29.4007C27.763 29.2548 27.7109 29.0465 27.7109 28.7756C27.7109 28.5256 27.763 28.3173 27.8672 28.1506C27.9922 27.9631 28.1172 27.7964 28.2421 27.6507C28.3672 27.484 28.4818 27.3173 28.586 27.1506C28.7109 26.9631 28.7735 26.7444 28.7735 26.4943C28.7735 26.3902 28.763 26.2027 28.7422 25.9319C28.7214 25.6402 28.7005 25.3381 28.6797 25.0257C28.6797 24.7131 28.6693 24.4215 28.6484 24.1506C28.6484 23.859 28.6484 23.661 28.6484 23.5569V23.4943V23.4319C28.7317 23.2444 28.7943 23.0881 28.8359 22.9631C28.8984 22.8382 28.961 22.7444 29.0235 22.682C29.0859 22.6194 29.1693 22.5777 29.2734 22.5569C29.3776 22.5153 29.513 22.4943 29.6797 22.4943C30.1172 22.4943 30.4401 22.5777 30.6484 22.7444C30.8568 22.9111 31.0026 23.109 31.0859 23.3381C31.1693 23.5466 31.2213 23.7444 31.2421 23.9319C31.2631 24.1194 31.3152 24.2235 31.3985 24.2444L33.6484 22.2757H33.7735C34.5026 21.7964 35.2734 21.4319 36.0859 21.1819C36.8984 20.9111 37.7527 20.7756 38.6484 20.7756C38.9192 20.7756 39.2421 20.8069 39.6173 20.8695C40.013 20.9319 40.3776 21.0465 40.7109 21.2132C41.0651 21.3589 41.3568 21.5569 41.586 21.8069C41.8359 22.057 41.961 22.3694 41.961 22.7444C41.961 23.1611 41.9089 23.5882 41.8048 24.0257C41.7005 24.4632 41.5547 24.9006 41.3672 25.3381C41.2005 25.7548 40.9922 26.1611 40.7422 26.5569C40.513 26.9319 40.2631 27.2548 39.9922 27.5256C39.8881 27.7548 39.2213 28.3381 37.9922 29.2757C36.763 30.2132 34.9297 31.609 32.4922 33.4632L47.4922 34.4007C47.7005 34.4215 47.9818 34.4423 48.336 34.4632C48.7109 34.4632 49.0651 34.4943 49.3985 34.5569C49.7527 34.6194 50.0546 34.7444 50.3047 34.9319C50.5547 35.0986 50.6797 35.3589 50.6797 35.7131C50.6797 35.9006 50.6484 36.057 50.586 36.1819C50.5442 36.286 50.4818 36.3799 50.3985 36.4632C50.336 36.5256 50.2526 36.5882 50.1485 36.6507C50.0651 36.7131 49.9818 36.7964 49.8984 36.9006H49.3672H48.8359C48.4193 36.859 47.9818 36.8069 47.5234 36.7444C47.0859 36.682 46.565 36.609 45.961 36.5256C45.3776 36.4423 44.6901 36.3589 43.8984 36.2757C43.1067 36.1924 42.1589 36.1194 41.0546 36.057C39.9505 35.9944 38.6589 35.9423 37.1797 35.9006C35.7214 35.859 34.0235 35.8382 32.0859 35.8382C32.0651 35.8382 32.0338 35.8695 31.9922 35.9319C31.9713 35.9944 31.961 36.0465 31.961 36.0881C31.961 36.8798 32.0235 37.661 32.1485 38.4319C32.2942 39.1819 32.3672 39.9319 32.3672 40.682C32.3672 40.8277 32.3464 40.9944 32.3047 41.1819C32.2839 41.3486 32.2318 41.5153 32.1485 41.6818C32.0651 41.8277 31.961 41.9527 31.8359 42.057C31.7109 42.1611 31.5547 42.2132 31.3672 42.2132C31.2421 42.2132 31.0964 42.1924 30.9297 42.1506C30.763 42.0881 30.5963 42.0049 30.4296 41.9006C30.2839 41.7964 30.1485 41.6818 30.0235 41.5569C29.8984 41.4319 29.8256 41.286 29.8048 41.1194L29.3047 34.9319ZM31.3985 28.0257C31.3985 28.5466 31.4088 29.036 31.4296 29.4943C31.4506 29.9527 31.4818 30.4527 31.5234 30.9944H31.6173C31.6381 30.9944 31.6901 30.9736 31.7735 30.9319C31.8568 30.8903 32.0651 30.7652 32.3985 30.5569C32.7317 30.3278 33.2421 29.9839 33.9297 29.5256C34.6173 29.0465 35.586 28.3799 36.8359 27.5256C37.0859 27.3799 37.3568 27.1298 37.6484 26.7756C37.9402 26.4215 38.211 26.036 38.4609 25.6194C38.7109 25.2027 38.9192 24.7964 39.0859 24.4007C39.2526 23.9839 39.336 23.6402 39.336 23.3694C39.336 23.1611 39.2318 23.057 39.0235 23.057C38.8359 23.057 38.6693 23.057 38.5234 23.057C38.211 23.057 37.8568 23.109 37.4609 23.2132C37.0651 23.3173 36.586 23.5256 36.0235 23.8382C35.4818 24.1506 34.8256 24.5986 34.0546 25.1819C33.3047 25.7652 32.4193 26.5466 31.3985 27.5256V28.0257ZM58.9297 33.4632C58.7422 33.7964 58.5234 34.2027 58.2734 34.682C58.0443 35.1403 57.7943 35.6402 57.5234 36.1819C57.2526 36.7028 56.9505 37.234 56.6173 37.7756C56.3047 38.2965 55.9713 38.7756 55.6173 39.2132C55.2839 39.6507 54.9297 40.0257 54.5547 40.3381C54.1797 40.6298 53.7943 40.8069 53.3985 40.8695C53.2318 40.8695 53.0443 40.859 52.8359 40.8382C52.6276 40.7964 52.4193 40.7444 52.211 40.682C52.0026 40.5986 51.8256 40.4943 51.6797 40.3694C51.5547 40.2235 51.4922 40.036 51.4922 39.8069C51.513 37.6818 51.6693 35.7548 51.961 34.0257C52.2526 32.2757 52.7109 30.7444 53.336 29.4319C53.961 28.0986 54.763 26.9944 55.7422 26.1194C56.7214 25.2444 57.9089 24.6194 59.3047 24.2444C59.3464 24.2444 59.4193 24.2444 59.5234 24.2444C59.6484 24.2235 59.7317 24.2132 59.7735 24.2132C60.3985 24.1924 60.8464 24.484 61.1172 25.0881C61.4088 25.6715 61.6173 26.609 61.7422 27.9006C61.8881 29.1714 61.9818 30.8172 62.0235 32.8382C62.0859 34.8382 62.2005 37.2444 62.3672 40.057C62.4296 40.286 62.4609 40.484 62.4609 40.6507C62.4818 40.8172 62.4922 41.0152 62.4922 41.2444C62.4922 41.5569 62.3985 41.7964 62.211 41.9631C62.0235 42.109 61.7838 42.1819 61.4922 42.1819C60.8881 42.1819 60.4609 42.0152 60.211 41.6818C59.961 41.3486 59.7943 40.9006 59.7109 40.3381C59.7109 40.3173 59.6901 40.1506 59.6484 39.8382C59.6276 39.5256 59.586 39.1714 59.5234 38.7756C59.4818 38.3589 59.4401 37.9423 59.3985 37.5256C59.3568 37.109 59.3255 36.7652 59.3047 36.4943V36.3694C59.2631 36.1611 59.2318 35.9006 59.211 35.5882C59.211 35.2757 59.1901 34.9736 59.1485 34.682C59.1067 34.3278 59.0756 33.9736 59.0546 33.6194L58.9297 33.4632ZM58.2421 27.2757C57.6797 27.6923 57.1277 28.2548 56.586 28.9631C56.0443 29.6715 55.6589 30.3589 55.4296 31.0257C55.3255 31.3381 55.211 31.7652 55.0859 32.3068C54.961 32.8485 54.8464 33.3902 54.7422 33.9319C54.6589 34.4527 54.586 34.9423 54.5234 35.4007C54.4609 35.8382 54.4296 36.1194 54.4296 36.2444C54.4506 36.2444 54.4714 36.2235 54.4922 36.1819C54.5339 36.1403 54.565 36.109 54.586 36.0881C55.8776 34.8382 56.7838 33.4943 57.3047 32.057C57.8464 30.5986 58.1589 29.0049 58.2421 27.2757ZM67.3047 40.9319C67.3047 40.8903 67.3047 40.8277 67.3047 40.7444C67.3255 40.661 67.3464 40.609 67.3672 40.5882L71.8359 32.1194C71.8984 31.9736 71.9713 31.7756 72.0546 31.5256C72.1589 31.2548 72.2526 30.9944 72.336 30.7444C72.4193 30.4735 72.4922 30.234 72.5547 30.0257C72.6173 29.8172 72.6484 29.6923 72.6484 29.6507V29.3068C71.961 29.3068 71.211 29.4735 70.3985 29.8069C69.586 30.1194 68.7838 30.3902 67.9922 30.6194C67.2005 30.8485 66.4609 30.9111 65.7735 30.8069C65.0859 30.682 64.5234 30.1819 64.0859 29.3068C64.0859 29.057 64.2318 28.859 64.5234 28.7131C64.8151 28.5466 65.0546 28.4632 65.2421 28.4632C65.2839 28.4632 65.4088 28.484 65.6173 28.5256C65.8464 28.5674 65.9818 28.5882 66.0235 28.5882C66.6276 28.5256 67.2318 28.4007 67.8359 28.2132C68.4401 28.0257 69.0338 27.8382 69.6173 27.6507C70.2213 27.4632 70.8151 27.3068 71.3985 27.1819C72.0026 27.036 72.5963 26.9839 73.1797 27.0257C73.4296 27.0257 73.7005 27.036 73.9922 27.057C74.3047 27.057 74.586 27.0986 74.8359 27.1819C75.1067 27.2444 75.336 27.3694 75.5234 27.5569C75.7109 27.7444 75.8048 28.0049 75.8048 28.3381C75.8048 28.6298 75.7527 28.9319 75.6484 29.2444C75.565 29.5569 75.4401 29.8277 75.2734 30.057L71.586 38.6194V38.9006L73.8359 37.8382H73.961L84.1485 34.6507H84.6484C84.8151 34.6507 85.0026 34.6715 85.211 34.7131C85.4401 34.734 85.6484 34.7861 85.8359 34.8695C86.0235 34.9319 86.1797 35.036 86.3047 35.1819C86.4296 35.3278 86.4922 35.5153 86.4922 35.7444C86.5339 36.0152 86.3672 36.2548 85.9922 36.4632C85.6173 36.6715 85.0859 36.8798 84.3985 37.0881C83.7109 37.2757 82.8881 37.484 81.9297 37.7131C80.9922 37.9215 79.9713 38.1924 78.8672 38.5256C77.763 38.8382 76.5963 39.2235 75.3672 39.6818C74.1589 40.1403 72.9402 40.7028 71.7109 41.3694C71.6484 41.3486 71.4922 41.3799 71.2421 41.4632C70.9922 41.5466 70.7109 41.6507 70.3985 41.7756C70.1067 41.8798 69.8151 41.9839 69.5234 42.0881C69.2526 42.1714 69.0546 42.2132 68.9297 42.2132C68.5963 42.2132 68.2421 42.0986 67.8672 41.8695C67.4922 41.6194 67.3047 41.3068 67.3047 40.9319ZM87.9326 35.0626C87.9326 33.4716 88.0254 31.8808 88.211 30.2898C88.3966 28.6724 88.5822 27.0948 88.7678 25.5569C88.7678 25.3448 88.8208 25.1857 88.9268 25.0796C89.033 24.9736 89.139 24.8542 89.245 24.7217C89.245 24.6952 89.2715 24.6421 89.3246 24.5626C89.3776 24.483 89.4042 24.43 89.4042 24.4034C89.8018 23.449 90.4514 22.6535 91.353 22.0171C92.2545 21.3543 93.2224 21.0228 94.2564 21.0228C94.8397 21.0228 95.3303 21.1023 95.728 21.2615C96.1258 21.394 96.4704 21.6062 96.7621 21.8978C97.0538 22.163 97.3189 22.4943 97.5575 22.8922C97.7962 23.2634 98.0613 23.6876 98.353 24.1649C98.565 24.6421 98.7374 25.1857 98.8701 25.7956C99.0026 26.4053 99.0954 27.0284 99.1485 27.6648C99.228 28.3012 99.281 28.9375 99.3076 29.5739C99.3341 30.1838 99.3473 30.7538 99.3473 31.2842C99.2942 32.1592 99.1882 33.0872 99.0292 34.0683C98.8965 35.0228 98.6712 35.9642 98.353 36.8922C98.0349 37.7937 97.5973 38.6289 97.0405 39.3978C96.5102 40.1668 95.8208 40.8031 94.9723 41.3068C94.6276 41.5191 94.2432 41.7179 93.8189 41.9035C93.4212 42.0891 93.0235 42.1819 92.6257 42.1819C91.6977 42.1819 90.9287 41.9566 90.3189 41.5058C89.7355 41.0284 89.2583 40.4319 88.8871 39.716C88.5424 39.0001 88.2904 38.2312 88.1315 37.4092C87.9988 36.5607 87.9326 35.7786 87.9326 35.0626ZM90.9154 36.6535C90.9421 36.8391 90.9818 37.0778 91.0349 37.3694C91.1144 37.661 91.2072 37.9527 91.3133 38.2444C91.4458 38.5361 91.6049 38.788 91.7905 39.0001C91.9761 39.2122 92.2148 39.3182 92.5064 39.3182C92.7185 39.3182 92.9173 39.2652 93.1029 39.1592C93.3152 39.0532 93.4875 38.947 93.62 38.841C94.3095 38.3106 94.8531 37.6743 95.2507 36.9319C95.675 36.1895 95.9931 35.4072 96.2053 34.5852C96.4174 33.7368 96.5499 32.8884 96.603 32.0398C96.656 31.1649 96.6826 30.3297 96.6826 29.5342C96.6826 29.4282 96.6826 29.2558 96.6826 29.0171C96.6826 28.7786 96.6693 28.5399 96.6427 28.3012C96.6427 28.036 96.6427 27.7842 96.6427 27.5455C96.6427 27.3068 96.6427 27.1479 96.6427 27.0683C96.6162 26.7767 96.5499 26.3921 96.4439 25.9148C96.3378 25.4111 96.192 24.9338 96.0064 24.483C95.8208 24.0058 95.569 23.5948 95.2507 23.2501C94.9591 22.9054 94.6011 22.733 94.1768 22.733C93.9383 22.733 93.6599 22.8126 93.3416 22.9717C93.0235 23.1042 92.7185 23.2766 92.4269 23.4887C92.1617 23.7009 91.923 23.9527 91.7109 24.2444C91.5253 24.5096 91.4325 24.7748 91.4325 25.0398C91.4325 25.252 91.4856 25.4244 91.5917 25.5569C91.7242 25.6895 91.7905 25.8884 91.7905 26.1535V26.5909C91.764 26.6705 91.7109 26.9092 91.6314 27.3068C91.5784 27.678 91.5121 28.0759 91.4325 28.5002C91.353 28.9243 91.2734 29.3354 91.1938 29.733C91.1409 30.1042 91.101 30.3297 91.0746 30.4091C90.9685 31.0721 90.9022 31.7482 90.8757 32.4376C90.8757 33.1269 90.8757 33.7899 90.8757 34.4263C90.8757 34.5058 90.8757 34.6516 90.8757 34.8638C90.8757 35.0759 90.8757 35.3012 90.8757 35.5399C90.9022 35.7786 90.9154 36.0039 90.9154 36.2159C90.9154 36.4282 90.9154 36.5739 90.9154 36.6535ZM103.19 36.6507C103.21 36.5256 103.21 36.1924 103.19 35.6507C103.169 35.109 103.158 34.4423 103.158 33.6507C103.179 32.8382 103.2 31.9527 103.221 30.9944C103.263 30.036 103.335 29.0673 103.44 28.0881C103.565 27.109 103.731 26.1714 103.94 25.2757C104.169 24.3589 104.46 23.5674 104.815 22.9006C104.94 22.3381 105.242 21.9527 105.721 21.7444C106.2 21.5153 106.877 21.3799 107.752 21.3381C108.315 21.3381 108.794 21.484 109.19 21.7756C109.585 22.0673 109.919 22.4319 110.19 22.8695C110.481 23.286 110.731 23.7444 110.94 24.2444C111.148 24.7444 111.335 25.1924 111.502 25.5882V25.7444C111.648 26.1611 111.752 26.7861 111.815 27.6194C111.898 28.4319 111.95 29.2965 111.971 30.2132C112.012 31.109 112.033 31.9736 112.033 32.8069C112.033 33.6402 112.033 34.2757 112.033 34.7131C112.033 35.3381 111.95 36.0881 111.783 36.9631C111.617 37.8172 111.346 38.6298 110.971 39.4007C110.617 40.1714 110.148 40.8277 109.565 41.3694C108.981 41.9111 108.283 42.1819 107.471 42.1819C106.783 42.1819 106.169 42.0049 105.627 41.6507C105.106 41.2965 104.658 40.8485 104.283 40.3068C103.929 39.7444 103.658 39.1403 103.471 38.4943C103.283 37.8485 103.19 37.234 103.19 36.6507ZM106.221 38.7444C106.263 38.9736 106.377 39.2132 106.565 39.4632C106.773 39.6923 107.012 39.8069 107.283 39.8069H107.533C108.408 39.0152 108.981 38.109 109.252 37.0881C109.523 36.0465 109.658 34.9527 109.658 33.8069C109.658 33.5361 109.648 33.1194 109.627 32.5569C109.606 31.9944 109.565 31.3694 109.502 30.682C109.46 29.9736 109.398 29.234 109.315 28.4632C109.231 27.6923 109.127 26.9736 109.002 26.3068C108.877 25.6194 108.731 25.0257 108.565 24.5256C108.398 24.0257 108.2 23.6818 107.971 23.4943C107.95 23.5153 107.919 23.5569 107.877 23.6194C107.856 23.6818 107.846 23.7236 107.846 23.7444C107.408 24.286 107.012 25.0257 106.658 25.9631C106.304 26.9006 106.033 28.0152 105.846 29.3068C105.679 30.5777 105.606 32.0152 105.627 33.6194C105.669 35.2027 105.867 36.9111 106.221 38.7444ZM115.317 41.2444C115.275 38.9319 115.213 36.6298 115.13 34.3381C115.067 32.0257 115.036 29.7131 115.036 27.4007C115.036 27.234 115.036 26.9423 115.036 26.5256C115.036 26.0881 115.036 25.6298 115.036 25.1506C115.057 24.6715 115.067 24.2235 115.067 23.8069C115.067 23.3902 115.067 23.0986 115.067 22.9319C115.15 22.5986 115.275 22.3381 115.442 22.1506C115.609 21.9423 115.869 21.8382 116.223 21.8382C116.578 21.8382 116.89 21.9527 117.161 22.1819C117.432 22.3902 117.65 22.6402 117.817 22.9319L122.317 31.6194C122.338 31.661 122.411 31.7861 122.536 31.9944C122.661 32.2027 122.755 32.3486 122.817 32.4319C122.838 32.4527 122.869 32.4735 122.911 32.4943C122.953 32.5153 122.973 32.5361 122.973 32.5569L123.098 32.2757L125.755 22.9319C125.942 22.6402 126.077 22.3173 126.161 21.9631C126.265 21.5882 126.369 21.2235 126.473 20.8695C126.598 20.5153 126.744 20.1819 126.911 19.8695C127.098 19.5569 127.369 19.2965 127.723 19.0881H127.973C128.536 19.0881 128.953 19.2548 129.223 19.5882C129.494 19.9006 129.682 20.2965 129.786 20.7756C129.89 21.234 129.932 21.7236 129.911 22.2444C129.911 22.7444 129.921 23.1819 129.942 23.5569C129.942 23.7028 129.953 23.9839 129.973 24.4007C130.015 24.8172 130.057 25.3068 130.098 25.8695C130.14 26.4319 130.182 27.036 130.223 27.6818C130.265 28.3068 130.296 28.9006 130.317 29.4632C130.359 30.0257 130.39 30.5153 130.411 30.9319C130.452 31.3486 130.473 31.6194 130.473 31.7444V31.8695C130.494 32.057 130.536 32.3694 130.598 32.8069C130.661 33.2444 130.723 33.7131 130.786 34.2132C130.869 34.6923 130.942 35.1506 131.005 35.5882C131.067 36.0257 131.119 36.3278 131.161 36.4943C131.182 36.5986 131.213 36.7548 131.255 36.9631C131.317 37.1714 131.38 37.4007 131.442 37.6507C131.525 37.8798 131.598 38.0986 131.661 38.3068C131.723 38.5153 131.775 38.661 131.817 38.7444C131.734 39.2235 131.609 39.5986 131.442 39.8695C131.296 40.1194 130.963 40.2444 130.442 40.2444C130.38 40.2444 130.286 40.2444 130.161 40.2444C130.036 40.2235 129.963 40.2132 129.942 40.2132C129.88 40.1714 129.755 40.0673 129.567 39.9006C129.4 39.734 129.307 39.6194 129.286 39.5569L128.786 37.8382L127.848 30.7131V30.4319C127.827 30.057 127.817 29.661 127.817 29.2444C127.817 28.8069 127.807 28.3694 127.786 27.9319C127.786 27.4943 127.765 27.057 127.723 26.6194C127.682 26.1819 127.598 25.7756 127.473 25.4007L127.317 25.5882L125.067 34.6507C125.046 34.8798 125.025 35.1298 125.005 35.4007C124.984 35.6507 124.932 35.9006 124.848 36.1506C124.765 36.3799 124.64 36.5777 124.473 36.7444C124.307 36.9111 124.067 37.0049 123.755 37.0257C123.63 37.0465 123.494 37.0257 123.348 36.9631C123.202 36.9006 123.057 36.8172 122.911 36.7131C122.765 36.609 122.63 36.4943 122.505 36.3694C122.4 36.2235 122.338 36.0881 122.317 35.9631L118.348 29.6507L117.692 28.3381V31.0257C117.692 32.2965 117.713 33.5466 117.755 34.7756C117.817 35.9839 117.848 37.2235 117.848 38.4943C117.848 38.5986 117.848 38.7861 117.848 39.057C117.848 39.3068 117.838 39.5777 117.817 39.8695C117.817 40.1611 117.817 40.4423 117.817 40.7131C117.817 40.9631 117.817 41.1403 117.817 41.2444C117.734 41.4943 117.609 41.7131 117.442 41.9006C117.296 42.0881 117.077 42.1819 116.786 42.1819C116.39 42.1819 116.077 42.1194 115.848 41.9944C115.64 41.8485 115.463 41.5986 115.317 41.2444ZM135.487 40.4007C135.487 39.9631 135.643 39.5569 135.956 39.1819C136.3 38.8069 136.69 38.6194 137.128 38.6194C137.659 38.6194 138.081 38.7601 138.393 39.0412C138.737 39.3226 139.065 39.635 139.378 39.9788V40.1194C139.378 40.6507 139.19 41.1351 138.815 41.5726C138.472 41.9788 138.003 42.1819 137.409 42.1819C137.003 42.1819 136.581 41.9944 136.143 41.6194C135.706 41.2444 135.487 40.8382 135.487 40.4007ZM144.164 40.2132C144.164 38.9631 144.247 37.7236 144.414 36.4943C144.581 35.2652 144.727 34.036 144.851 32.8069C144.851 32.7444 144.862 32.609 144.883 32.4007C144.904 32.1714 144.924 31.9319 144.945 31.6818C144.987 31.4319 145.018 31.2027 145.039 30.9944C145.081 30.7652 145.101 30.6194 145.101 30.5569V30.4319L146.415 20.682C146.372 20.2652 146.435 19.9006 146.602 19.5882C146.788 19.2548 147.123 19.0881 147.601 19.0881C148.122 19.0257 148.55 19.0986 148.883 19.3068C149.236 19.4943 149.529 19.7444 149.757 20.057C149.987 20.3694 150.175 20.7131 150.32 21.0881C150.465 21.4632 150.623 21.8069 150.788 22.1194C150.893 22.4111 151.018 22.7548 151.164 23.1506C151.331 23.5466 151.519 24.0465 151.727 24.6507C151.956 25.2548 152.217 25.9944 152.508 26.8695C152.82 27.7444 153.174 28.8069 153.571 30.057L153.695 30.1819C153.841 30.0986 154.112 29.9631 154.508 29.7756C154.925 29.5882 155.351 29.3902 155.789 29.1819C156.247 28.9736 156.675 28.7756 157.071 28.5882C157.466 28.4007 157.747 28.2757 157.914 28.2132C157.935 28.1714 157.987 28.1403 158.07 28.1194C158.174 28.0778 158.247 28.0465 158.289 28.0257H158.352C158.56 28.0257 158.716 28.109 158.82 28.2757C158.925 28.4215 158.976 28.5674 158.976 28.7131C158.976 28.9423 158.925 29.1403 158.82 29.3068C158.716 29.4735 158.59 29.6298 158.445 29.7756C158.32 29.9006 158.174 30.0257 158.007 30.1506C157.862 30.2757 157.747 30.4111 157.664 30.5569L154.57 32.1194C154.487 32.2235 154.445 32.3068 154.445 32.3694C154.445 32.5361 154.528 32.7964 154.695 33.1506C154.883 33.5048 155.028 33.7861 155.133 33.9944C155.196 34.1194 155.299 34.3486 155.446 34.682C155.591 35.0152 155.747 35.3589 155.914 35.7131C156.08 36.0673 156.237 36.4111 156.383 36.7444C156.55 37.057 156.665 37.2757 156.726 37.4007V37.4943C156.726 38.2444 156.352 38.6194 155.601 38.6194C155.372 38.6194 155.133 38.5986 154.883 38.5569C154.633 38.4943 154.445 38.3381 154.32 38.0881L152.227 33.6194H151.945C151.153 34.2235 150.31 34.8172 149.414 35.4007C148.518 35.9839 147.601 36.484 146.665 36.9006C146.518 37.6507 146.425 38.4111 146.383 39.1819C146.362 39.9527 146.372 40.7236 146.415 41.4943C146.247 41.7236 146.08 41.9006 145.914 42.0257C145.747 42.1298 145.519 42.1819 145.226 42.1819C144.935 42.1819 144.716 42.1194 144.57 41.9944C144.424 41.8485 144.32 41.6818 144.258 41.4943C144.195 41.286 144.164 41.0673 144.164 40.8382C144.164 40.609 144.164 40.4007 144.164 40.2132ZM146.945 34.1506C147.571 33.9006 148.175 33.5674 148.758 33.1506C149.361 32.734 149.935 32.3486 150.477 31.9944C150.54 31.9527 150.612 31.9111 150.695 31.8695C150.8 31.8277 150.893 31.7756 150.976 31.7131C151.06 31.6507 151.164 31.5777 151.289 31.4943V31.2444L148.415 23.057L148.289 22.9319C148.227 23.057 148.143 23.4111 148.039 23.9944C147.956 24.5777 147.852 25.3381 147.727 26.2757C147.622 27.1924 147.497 28.2548 147.351 29.4632C147.226 30.6715 147.091 31.9631 146.945 33.3381V34.1506ZM161.664 34.9319C161.539 34.661 161.434 34.4423 161.351 34.2757C161.289 34.109 161.258 33.9111 161.258 33.6818C161.258 33.4943 161.279 33.3278 161.321 33.1819C161.383 33.0152 161.414 32.8382 161.414 32.6507C161.414 32.1924 161.393 31.7652 161.351 31.3694C161.331 30.9736 161.299 30.5361 161.258 30.057C161.236 29.9944 161.164 29.9423 161.038 29.9006C160.913 29.859 160.778 29.8069 160.633 29.7444C160.487 29.661 160.352 29.5466 160.227 29.4007C160.122 29.2548 160.07 29.0465 160.07 28.7756C160.07 28.5256 160.122 28.3173 160.227 28.1506C160.352 27.9631 160.477 27.7964 160.602 27.6507C160.726 27.484 160.841 27.3173 160.945 27.1506C161.071 26.9631 161.133 26.7444 161.133 26.4943C161.133 26.3902 161.123 26.2027 161.101 25.9319C161.081 25.6402 161.06 25.3381 161.038 25.0257C161.038 24.7131 161.028 24.4215 161.008 24.1506C161.008 23.859 161.008 23.661 161.008 23.5569V23.4943V23.4319C161.091 23.2444 161.153 23.0881 161.196 22.9631C161.258 22.8382 161.321 22.7444 161.383 22.682C161.446 22.6194 161.529 22.5777 161.633 22.5569C161.737 22.5153 161.872 22.4943 162.039 22.4943C162.477 22.4943 162.8 22.5777 163.008 22.7444C163.216 22.9111 163.361 23.109 163.446 23.3381C163.529 23.5466 163.581 23.7444 163.601 23.9319C163.622 24.1194 163.674 24.2235 163.757 24.2444L166.007 22.2757H166.132C166.863 21.7964 167.633 21.4319 168.445 21.1819C169.258 20.9111 170.112 20.7756 171.008 20.7756C171.279 20.7756 171.601 20.8069 171.977 20.8695C172.372 20.9319 172.737 21.0465 173.071 21.2132C173.424 21.3589 173.716 21.5569 173.945 21.8069C174.195 22.057 174.32 22.3694 174.32 22.7444C174.32 23.1611 174.268 23.5882 174.164 24.0257C174.06 24.4632 173.914 24.9006 173.727 25.3381C173.559 25.7548 173.351 26.1611 173.101 26.5569C172.873 26.9319 172.622 27.2548 172.352 27.5256C172.247 27.7548 171.581 28.3381 170.352 29.2757C169.123 30.2132 167.289 31.609 164.851 33.4632L179.852 34.4007C180.06 34.4215 180.34 34.4423 180.695 34.4632C181.07 34.4632 181.424 34.4943 181.757 34.5569C182.112 34.6194 182.415 34.7444 182.665 34.9319C182.913 35.0986 183.038 35.3589 183.038 35.7131C183.038 35.9006 183.008 36.057 182.945 36.1819C182.903 36.286 182.841 36.3799 182.758 36.4632C182.695 36.5256 182.612 36.5882 182.508 36.6507C182.425 36.7131 182.34 36.7964 182.257 36.9006H181.727H181.196C180.778 36.859 180.34 36.8069 179.882 36.7444C179.446 36.682 178.925 36.609 178.32 36.5256C177.737 36.4423 177.049 36.3589 176.257 36.2757C175.466 36.1924 174.518 36.1194 173.414 36.057C172.31 35.9944 171.018 35.9423 169.539 35.9006C168.08 35.859 166.383 35.8382 164.445 35.8382C164.425 35.8382 164.393 35.8695 164.352 35.9319C164.33 35.9944 164.32 36.0465 164.32 36.0881C164.32 36.8798 164.383 37.661 164.508 38.4319C164.653 39.1819 164.726 39.9319 164.726 40.682C164.726 40.8277 164.705 40.9944 164.665 41.1819C164.643 41.3486 164.59 41.5153 164.508 41.6818C164.425 41.8277 164.32 41.9527 164.195 42.057C164.07 42.1611 163.914 42.2132 163.727 42.2132C163.601 42.2132 163.456 42.1924 163.289 42.1506C163.123 42.0881 162.956 42.0049 162.788 41.9006C162.643 41.7964 162.508 41.6818 162.383 41.5569C162.257 41.4319 162.185 41.286 162.164 41.1194L161.664 34.9319ZM163.757 28.0257C163.757 28.5466 163.769 29.036 163.789 29.4943C163.809 29.9527 163.841 30.4527 163.882 30.9944H163.977C163.997 30.9944 164.049 30.9736 164.132 30.9319C164.217 30.8903 164.425 30.7652 164.758 30.5569C165.091 30.3278 165.601 29.9839 166.289 29.5256C166.976 29.0465 167.945 28.3799 169.196 27.5256C169.446 27.3799 169.716 27.1298 170.007 26.7756C170.3 26.4215 170.57 26.036 170.82 25.6194C171.071 25.2027 171.279 24.7964 171.446 24.4007C171.612 23.9839 171.695 23.6402 171.695 23.3694C171.695 23.1611 171.591 23.057 171.383 23.057C171.196 23.057 171.028 23.057 170.883 23.057C170.57 23.057 170.217 23.109 169.82 23.2132C169.424 23.3173 168.945 23.5256 168.383 23.8382C167.841 24.1506 167.185 24.5986 166.415 25.1819C165.664 25.7652 164.778 26.5466 163.757 27.5256V28.0257ZM187.008 33.057C186.716 33.057 186.455 33.1298 186.227 33.2757C185.997 33.4215 185.727 33.4943 185.414 33.4943C185.372 33.4943 185.258 33.4943 185.071 33.4943C184.903 33.4735 184.8 33.4632 184.758 33.4632C184.675 33.3589 184.58 33.2757 184.477 33.2132C184.372 33.1506 184.268 33.0881 184.164 33.0257C184.06 32.9423 183.967 32.8485 183.882 32.7444C183.82 32.6402 183.789 32.4943 183.789 32.3068C183.789 31.9944 183.914 31.7444 184.164 31.5569C184.415 31.3486 184.705 31.1714 185.038 31.0257C185.372 30.8798 185.706 30.7444 186.039 30.6194C186.393 30.4943 186.675 30.3486 186.883 30.1819V28.8069C186.883 27.2652 186.81 25.7236 186.665 24.1819C186.518 22.6194 186.445 21.0778 186.445 19.5569C186.445 19.1403 186.55 18.8695 186.758 18.7444C186.966 18.6194 187.248 18.5569 187.601 18.5569C188.017 18.5569 188.32 18.682 188.508 18.9319C188.716 19.1611 188.863 19.4527 188.945 19.8069C189.028 20.1403 189.07 20.5048 189.07 20.9006C189.07 21.2757 189.081 21.5986 189.101 21.8695C189.101 22.1403 189.123 22.6194 189.164 23.3068C189.206 23.9944 189.248 24.7236 189.289 25.4943C189.331 26.2652 189.372 26.9944 189.414 27.6818C189.456 28.3694 189.487 28.8485 189.508 29.1194C189.591 29.0986 189.747 29.0465 189.977 28.9631C190.227 28.859 190.487 28.7652 190.758 28.682C191.028 28.5777 191.279 28.484 191.508 28.4007C191.757 28.3173 191.934 28.2548 192.039 28.2132C192.58 27.9839 193.143 27.734 193.727 27.4632C194.31 27.1714 194.903 27.0257 195.508 27.0257C195.924 27.0257 196.237 27.1714 196.445 27.4632C196.675 27.734 196.788 28.057 196.788 28.4319C196.788 28.7028 196.685 28.9006 196.477 29.0257C196.268 29.1506 196.049 29.2652 195.82 29.3694L190.132 31.4943C190.07 31.5361 190.007 31.5777 189.945 31.6194C189.882 31.6402 189.82 31.6818 189.757 31.7444V32.7444C189.757 33.4735 189.769 34.234 189.789 35.0257C189.831 35.7964 189.904 36.5466 190.007 37.2757C190.112 37.9006 190.227 38.5153 190.352 39.1194C190.477 39.7236 190.54 40.3381 190.54 40.9631C190.54 41.1506 190.477 41.4007 190.352 41.7131C190.227 42.0257 190.029 42.1819 189.757 42.1819C189.196 42.1819 188.737 42.0152 188.383 41.6818C188.029 41.3486 187.831 40.9006 187.789 40.3381C187.684 39.2548 187.571 38.0673 187.446 36.7756C187.341 35.484 187.236 34.2444 187.133 33.057H187.008Z" fill="#201F1E"/>
</g>
<defs>
<clipPath id="clip0_111_55">
<rect width="224" height="64" fill="white"/>
</clipPath>
</defs>
</svg>
