<svg width="224" height="64" viewBox="0 0 224 64" fill="none" xmlns="http://www.w3.org/2000/svg">
<g clip-path="url(#clip0_111_64)">
<path d="M192 0H32C14.3269 0 0 14.3269 0 32C0 49.6731 14.3269 64 32 64H192C209.673 64 224 49.6731 224 32C224 14.3269 209.673 0 192 0Z" fill="#B8FF59"/>
<path d="M69.0889 40.7273H71.7449V32.0233C71.7449 28.8233 73.4409 26.6473 75.8729 26.6473C76.4809 26.6473 77.4409 26.7753 78.2729 27.1273V24.6633C77.7929 24.4073 77.0249 24.2473 76.2889 24.2473C74.4969 24.2473 72.7049 25.2713 71.9689 26.7433H71.6809V24.5673H69.0889V40.7273ZM80.2426 40.7273H94.8346V38.3273H84.6266V38.0073L94.5146 25.7193V24.5673H80.5626V26.9673H90.1946V27.2553L80.2426 39.5753V40.7273ZM98.3076 40.7273H100.964V31.0633C100.964 28.2153 102.692 26.3273 105.316 26.3273C107.812 26.3273 109.476 28.2153 109.476 31.0633V40.7273H112.132V31.0633C112.132 28.3113 113.956 26.3273 116.548 26.3273C118.98 26.3273 120.74 28.3113 120.74 31.0633V40.7273H123.396V31.0953C123.396 26.9033 120.676 23.9593 116.868 23.9593C114.436 23.9593 112.58 25.1753 111.46 27.0633H111.172C110.244 25.1753 108.164 23.9273 105.892 23.9273C103.78 23.9273 102.084 25.0473 101.188 26.7113H100.868V24.5673H98.3076V40.7273ZM127.995 40.7273H130.651V32.0233C130.651 28.8233 132.347 26.6473 134.779 26.6473C135.387 26.6473 136.347 26.7753 137.179 27.1273V24.6633C136.699 24.4073 135.931 24.2473 135.195 24.2473C133.403 24.2473 131.611 25.2713 130.875 26.7433H130.587V24.5673H127.995V40.7273ZM146.445 41.3353C147.245 41.3353 148.301 41.1753 149.069 40.9193V38.7753C148.461 38.9673 147.629 39.0953 147.149 39.0953C145.613 39.0953 144.653 38.0073 144.653 36.4713V26.6793H148.813V24.5673H144.653L144.685 19.3513H142.605L141.997 24.5673H139.373V26.6793H141.997V36.5673C141.997 39.4153 143.725 41.3353 146.445 41.3353ZM154.017 41.1433C155.041 41.1433 155.777 40.4073 155.777 39.3833C155.777 38.3593 155.041 37.6233 154.017 37.6233C152.961 37.6233 152.257 38.3593 152.257 39.3833C152.257 40.4073 152.961 41.1433 154.017 41.1433Z" fill="#201F1E"/>
</g>
<defs>
<clipPath id="clip0_111_64">
<rect width="224" height="64" fill="white"/>
</clipPath>
</defs>
</svg>
