<svg width="224" height="64" viewBox="0 0 224 64" fill="none" xmlns="http://www.w3.org/2000/svg">
<g clip-path="url(#clip0_111_11)">
<path d="M192 0H32C14.3269 0 0 14.3269 0 32C0 49.6731 14.3269 64 32 64H192C209.673 64 224 49.6731 224 32C224 14.3269 209.673 0 192 0Z" fill="#B8FF59"/>
<path d="M51.1323 41.2393C53.7243 41.2393 55.6123 40.2153 56.7643 38.3593H57.0523V40.7273H59.7083V30.0073C59.7083 26.3273 57.0523 23.9593 52.8603 23.9593C48.7963 23.9593 46.1403 26.1353 46.1403 29.5593H48.8283C48.7963 27.5433 50.3963 26.3593 52.8283 26.3593C55.4843 26.3593 57.0523 27.7673 57.0523 29.9433V30.5833L52.5723 31.1273C47.7723 31.6713 45.3403 33.7833 45.3403 36.6313C45.3403 39.4153 47.6443 41.2393 51.1323 41.2393ZM51.5163 39.0313C49.3403 39.0313 47.9963 38.1033 47.9963 36.5673C47.9963 35.0633 49.2763 33.7833 52.5723 33.3673L57.0523 32.8553V34.2953C57.0523 37.0153 54.8123 39.0313 51.5163 39.0313ZM64.3079 40.7273H66.9639V31.2873C66.9639 28.4713 69.2999 26.3593 72.0199 26.3593C74.8039 26.3593 76.4359 28.3433 76.4359 31.0633V40.7273H79.0919V31.0633C79.0919 26.9673 76.4679 23.9593 72.3719 23.9593C70.2279 23.9593 68.4359 24.9833 67.2839 26.7753H66.9639V24.5673H64.3079V40.7273ZM89.5389 41.3353C90.3389 41.3353 91.3949 41.1753 92.1629 40.9193V38.7753C91.5549 38.9673 90.7229 39.0953 90.2429 39.0953C88.7069 39.0953 87.7469 38.0073 87.7469 36.4713V26.6793H91.9069V24.5673H87.7469L87.7789 19.3513H85.6989L85.0909 24.5673H82.4669V26.6793H85.0909V36.5673C85.0909 39.4153 86.8189 41.3353 89.5389 41.3353ZM97.7828 21.4953C98.9028 21.4953 99.6708 20.6953 99.6708 19.5753C99.6708 18.4873 98.9028 17.7193 97.7828 17.7193C96.6628 17.7193 95.8628 18.4873 95.8628 19.5753C95.8628 20.6953 96.6628 21.4953 97.7828 21.4953ZM96.4388 40.7273H99.0948V24.5673H96.4388V40.7273ZM104.277 40.7273H106.933V31.2873C106.933 28.4073 109.269 26.3273 111.989 26.3273C114.773 26.3273 116.405 28.2793 116.405 31.0313V40.7273H119.061V31.0313C119.061 26.9033 116.437 23.9273 112.341 23.9273C110.197 23.9273 108.405 24.9193 107.253 26.6153H106.933V17.2073H104.277V40.7273ZM125.22 47.8953C128.708 47.8953 129.988 44.5673 131.428 40.9833L137.828 24.5673H134.98L130.244 37.2073H129.924L124.388 24.5673H121.604L128.804 40.6953C127.844 42.9673 127.204 45.5273 124.804 45.5273C124.196 45.5273 123.396 45.3353 122.66 45.0473V47.3833C123.396 47.7033 124.42 47.8953 125.22 47.8953ZM149.546 23.9273C146.89 23.9273 144.811 25.0793 143.627 27.0313H143.339V24.5673H140.683V48.0873H143.339V38.3273H143.627C144.811 40.2473 146.986 41.3673 149.578 41.3673C154.282 41.3673 157.898 37.6873 157.898 32.6313C157.898 27.5753 154.25 23.9273 149.546 23.9273ZM149.258 26.3273C152.714 26.3273 155.242 29.0153 155.242 32.6313C155.242 36.1833 152.714 38.9673 149.258 38.9673C145.77 38.9673 143.243 36.1833 143.243 32.6313C143.243 29.0793 145.77 26.3273 149.258 26.3273ZM169.868 41.3673C173.452 41.3673 176.364 39.7033 177.676 36.9513L175.468 35.8313C174.444 37.7513 172.332 38.9673 169.932 38.9673C166.636 38.9673 164.268 36.7913 163.884 33.5273H178.188C178.22 33.1753 178.22 32.7913 178.22 32.4713C178.22 27.5113 174.668 23.9273 169.74 23.9273C164.748 23.9273 161.164 27.5113 161.164 32.4393C161.164 37.6233 164.812 41.3673 169.868 41.3673ZM163.916 31.1913C164.364 28.2793 166.636 26.3273 169.612 26.3273C172.684 26.3273 174.956 28.2793 175.436 31.1913H163.916Z" fill="#201F1E"/>
</g>
<defs>
<clipPath id="clip0_111_11">
<rect width="224" height="64" fill="white"/>
</clipPath>
</defs>
</svg>
