<svg width="224" height="64" viewBox="0 0 224 64" fill="none" xmlns="http://www.w3.org/2000/svg">
<g clip-path="url(#clip0_111_61)">
<path d="M192 0H32C14.3269 0 0 14.3269 0 32C0 49.6731 14.3269 64 32 64H192C209.673 64 224 49.6731 224 32C224 14.3269 209.673 0 192 0Z" fill="#B8FF59"/>
<path d="M96.0835 24.5674H93.4275V33.9754C93.4275 36.8234 91.0915 38.9034 88.3715 38.9034C85.5875 38.9034 83.9875 36.9514 83.9875 34.1994V24.5674H81.3315V34.1994C81.3315 38.3274 83.9235 41.3034 88.0515 41.3034C90.1635 41.3034 91.9875 40.2794 93.1075 38.5194H93.4275V40.7274H96.0835V24.5674ZM104.675 40.7274H108.451L111.843 27.6394H112.163L115.523 40.7274H119.331L124.739 24.5674H122.115L117.699 38.1354H117.411L113.699 24.5674H110.307L106.691 38.1034H106.403L101.891 24.5674H99.2665L104.675 40.7274ZM142.334 24.5674H139.678V33.9754C139.678 36.8234 137.342 38.9034 134.622 38.9034C131.838 38.9034 130.238 36.9514 130.238 34.1994V24.5674H127.582V34.1994C127.582 38.3274 130.174 41.3034 134.302 41.3034C136.414 41.3034 138.238 40.2794 139.358 38.5194H139.678V40.7274H142.334V24.5674Z" fill="#201F1E"/>
</g>
<defs>
<clipPath id="clip0_111_61">
<rect width="224" height="64" fill="white"/>
</clipPath>
</defs>
</svg>
