<svg width="224" height="64" viewBox="0 0 224 64" fill="none" xmlns="http://www.w3.org/2000/svg">
<g clip-path="url(#clip0_111_5)">
<path d="M192 0H32C14.3269 0 0 14.3269 0 32C0 49.6731 14.3269 64 32 64H192C209.673 64 224 49.6731 224 32C224 14.3269 209.673 0 192 0Z" fill="#B8FF59"/>
<path d="M40.3278 46.3708C40.8805 46.3708 41.8405 45.6436 41.8405 45.149C41.8405 44.9454 41.7533 44.7709 41.5496 44.4799L38.786 40.7563C37.6514 39.2436 36.3714 37.7309 35.9642 35.7527C35.6151 34.2109 35.3532 32.6109 35.0914 31.0399C35.0042 30.6036 34.946 30.1963 34.8587 29.7599C34.8587 29.4399 35.1205 29.5563 34.7714 29.6436C36.226 29.2654 37.5351 27.5199 37.5351 26.0072L37.4478 25.8327C37.4478 25.8327 37.4478 25.8036 37.3896 25.7454C37.2732 25.5709 37.1278 25.3963 36.9823 25.2509C35.8769 24.349 34.5969 23.4181 33.4042 22.4872C32.4732 21.8181 32.066 21.4981 31.5423 21.0909C31.2805 20.8872 30.8442 20.7127 30.5242 20.7127C29.4478 20.7127 28.6042 22.2254 28.3714 24.2327C28.1387 25.9781 27.7023 27.6654 27.2369 29.3818C27.0332 30.1381 26.8005 30.9527 26.626 31.6799C26.626 31.9709 26.7132 32.2327 26.946 32.6981C27.0914 32.9599 27.1205 33.0181 27.1205 33.1636C27.1787 33.4545 27.266 33.949 27.3532 34.5018C27.9932 38.5745 28.4005 42.3563 29.3314 42.3563C30.0005 42.3563 30.786 41.5418 30.786 40.9309C30.786 40.7563 30.6987 40.6109 30.5242 40.2909C30.3787 39.9709 30.2914 39.7672 30.2623 39.5054C30.146 39.0109 30.0587 38.4581 29.9423 37.9054C29.6223 36.3345 29.3314 34.7927 29.0696 33.1927C29.0696 32.6981 29.8551 32.2036 31.9787 31.2727C32.1532 31.1854 32.386 31.0981 32.5605 31.0109C32.6478 31.1563 32.8223 31.709 33.026 33.2218C33.4332 36.509 34.3642 38.8945 35.9932 40.9309C36.4005 41.4254 37.0696 42.4145 37.7096 43.3454C38.8733 45.0618 39.6878 46.3708 40.3278 46.3708ZM28.9242 30.5745C28.8951 30.5745 28.8369 30.5454 28.6623 30.4872C28.5751 30.4581 28.5169 30.4581 28.4005 30.3999L28.6914 30.7781C28.9532 29.9636 29.186 29.3236 29.4187 28.6545C29.9132 27.229 30.3496 25.9199 30.6405 24.4654C30.786 23.5636 30.9023 23.6799 30.6114 23.6799C30.7278 23.6799 34.8296 26.2981 34.8296 27.3163C34.8296 27.4327 34.3351 27.7527 34.1605 27.7527C33.4332 27.7527 33.2005 27.9272 32.5605 28.5672C31.426 29.7018 29.7969 30.5745 28.9242 30.5745ZM44.8263 42.909H44.8844C46.979 42.909 48.6663 36.3345 48.6663 34.8509C48.6663 34.5599 48.6372 34.2399 48.579 33.9781C48.5499 33.6872 48.5208 33.4254 48.5208 33.1636C48.5208 33.1345 49.0154 33.0472 49.6844 33.0472C50.2372 33.0472 50.6445 33.0472 50.9935 33.0763C51.2845 33.0763 51.5754 33.0763 51.8954 33.0763C52.3026 33.0763 54.4263 35.7236 55.619 37.8763C55.7354 38.109 55.9099 38.5454 56.0845 38.9236C56.5208 40.029 57.0735 41.4254 58.3535 41.4254C58.8772 41.4254 59.4299 40.8436 59.4299 40.2909C59.4299 40.2618 59.4008 40.1745 59.3717 40.0872L59.4008 40.1745L59.3717 40.0581C59.1681 39.6218 58.9354 39.069 58.7317 38.5745C58.1208 37.1199 57.539 35.6654 56.1717 34.4436C55.7354 34.0945 55.3863 33.5418 55.3863 33.1927C55.3863 33.0181 55.4154 32.8436 55.5026 32.5236C55.5899 32.1454 55.619 31.9709 55.619 31.7963C55.619 31.389 55.0372 31.069 54.4263 31.069L54.1354 31.0981C53.7863 31.0981 53.7572 31.069 53.5244 30.6036C53.3208 30.1672 53.1463 29.9054 52.7972 29.5854C50.9935 27.8109 50.3244 25.4254 49.6554 22.9818C49.4808 22.3127 49.3935 22.0218 49.2772 21.6436C49.1608 21.2072 48.7535 20.7127 48.2881 20.7127C47.8517 20.7127 47.2117 21.0618 47.0372 21.4109C45.9026 23.7963 44.7099 26.3854 44.7099 29.0327C44.7099 29.8763 44.8554 30.6618 45.2044 31.5054C45.2335 31.5345 45.2626 31.6218 45.3208 31.7672C45.5244 32.2909 45.5826 32.5527 45.5826 32.8436C45.5826 33.0472 45.5244 33.309 45.4372 33.5999C44.7681 35.3163 44.3899 37.0618 44.0117 38.8363C43.8372 39.5636 43.6626 40.349 43.4881 41.0472L43.6917 41.3672C43.7208 41.3672 43.779 41.3963 43.8372 41.4254C43.7499 41.3672 43.6917 41.2509 43.6917 41.3963C43.6917 41.4254 43.6917 41.4836 43.6917 41.5418C43.6626 41.6581 43.6626 41.7163 43.6626 41.7745C43.6626 42.3854 44.1281 42.8218 44.8263 42.909ZM48.259 31.0981C47.3281 31.0981 47.2117 30.9818 47.2117 28.7127C47.2117 27.5199 47.4735 26.3854 47.7354 25.2218C47.8226 24.8436 47.9099 24.4363 47.9972 24.0872C47.9972 24.0581 48.0263 24.029 48.0554 23.9709H47.3572C47.5026 24.1745 47.619 24.6109 47.8517 25.5127C47.9972 26.1527 48.0554 26.4145 48.2008 26.7636C48.7244 28.0727 49.5681 29.2363 50.3535 30.3418C50.5572 30.6327 50.6735 30.749 50.7899 30.9527C50.7608 31.069 50.6444 31.0981 49.9754 31.0981C49.1026 31.0981 49.7717 31.9127 49.7717 31.3599L49.3354 31.069C49.1026 31.069 48.899 31.069 48.7244 31.0981C48.5499 31.0981 48.4044 31.0981 48.259 31.0981ZM66.9263 42.8509C67.0427 42.8509 67.2463 42.8218 67.4791 42.7636C67.7118 42.7054 67.9445 42.6472 68.1773 42.6472C69.7773 42.6472 71.3482 42.6181 72.9482 42.589C74.5191 42.589 76.1191 42.5599 77.69 42.5599C78.2427 42.5599 78.8245 42.5599 79.3773 42.5599C79.9591 42.589 80.5118 42.589 81.0936 42.589C82.5191 42.589 83.7409 41.7163 83.7409 40.6399C83.7409 40.2036 83.1009 40.0872 82.5191 40.0872C81.1518 40.0872 79.9882 40.1454 78.8536 40.2327C77.7191 40.2909 76.5845 40.349 75.2754 40.349C75.0427 40.349 74.7518 40.3199 74.49 40.2909C74.2863 40.2909 74.0827 40.2618 73.9373 40.2618C73.1518 40.2618 72.3954 40.2618 71.61 40.2909C70.8536 40.2909 70.0682 40.3199 69.2827 40.3199C68.9918 40.3199 69.1663 40.3781 69.1663 40.349C69.1663 40.2618 69.1954 40.1454 69.2536 40.0581C70.1845 37.9345 71.1445 35.8981 71.93 33.8327C73.0063 31.0109 74.3736 29.0327 76.1191 27.6945C76.4391 27.4618 76.6136 27.3163 77.1082 26.9672C78.1845 26.2399 79.3482 25.4545 79.9882 24.2036C80.0463 24.1163 80.0463 24.1163 80.0754 24.0581C80.3372 23.6509 80.4245 23.4472 80.4245 23.2727C80.4245 22.8654 79.9591 22.6327 79.3191 22.5745C79.5227 22.5745 79.4936 22.6618 79.4063 22.3999C79.2318 21.9636 78.9991 21.7309 78.5627 21.7309C78.3882 21.7309 78.1263 21.789 77.8936 21.8763C77.8063 21.9054 77.7772 21.9054 77.7191 21.9054C77.3991 22.0509 77.1663 22.109 76.6427 22.3127C75.0427 22.8945 73.53 23.4472 71.9009 23.4472C70.33 23.4472 68.73 23.069 67.13 22.6909C65.53 22.2836 63.9009 21.9054 62.2136 21.9054C60.9336 21.9054 59.9736 22.6618 59.9736 23.6509C59.9736 24.349 60.8463 25.1636 61.5445 24.5236C61.8936 24.349 62.2718 24.2618 62.7373 24.2618C63.3773 24.2618 64.0463 24.4363 64.7445 24.6399C65.1227 24.7563 65.2972 24.8145 65.53 24.8727C67.5663 25.3672 69.6027 25.8327 71.6973 25.8327C72.9482 25.8327 74.1991 25.6581 75.3336 25.2799C75.3918 25.2799 75.4791 25.309 75.5663 25.3381C75.6536 25.3381 75.7118 25.3381 75.7991 25.3672L75.4791 24.9599C75.4209 25.0472 75.3918 25.0763 75.3627 25.1636C75.2754 25.3963 75.2754 25.4545 75.3045 25.3672C74.8973 25.8909 74.5773 26.269 73.85 27.1418C72.8609 28.3054 71.8427 29.5272 71.1154 30.7781C70.01 32.669 69.1663 34.589 68.3227 36.5672C68.0318 37.2363 67.7409 37.9345 67.45 38.5454C67.3336 38.8072 67.2754 38.9236 67.0718 39.3309C66.6063 40.2327 66.0827 41.2799 66.0827 42.1236C66.0827 42.589 66.4027 42.8509 66.9263 42.8509ZM90.6824 44.2472C90.9442 44.2472 91.2642 44.1308 91.497 43.9563C91.7879 43.7527 91.9624 43.6363 92.3988 43.3454C93.3297 42.7345 94.3479 42.0654 95.1333 41.309C96.966 39.6509 97.6642 37.6145 97.6642 34.1236C97.6642 33.309 97.6351 32.5236 97.6061 31.709C97.4315 26.4145 93.7661 21.2654 90.0715 21.2654C88.6751 21.2654 87.1624 21.8472 85.2715 23.1272C84.777 23.4472 84.6897 23.7963 84.6024 24.6109C84.5733 24.7272 84.5733 24.8436 84.5442 24.9309L85.126 25.2509C85.5915 25.1054 85.9406 24.989 86.377 24.9018L85.8242 24.6109C85.8242 24.8145 85.8242 24.8436 85.8533 24.7854L85.8824 24.7563C84.7479 25.8909 84.3406 27.0836 84.0206 30.0799L84.0497 30.1963C84.137 30.6036 84.2824 31.1272 84.3988 31.6509C84.6606 32.8727 84.9806 34.2109 85.5333 35.549C86.2606 37.2363 87.1915 38.9527 88.0933 40.6109C88.617 41.5709 89.1115 42.4727 89.6351 43.4618C89.8388 43.9854 90.1879 44.2472 90.6824 44.2472ZM91.7588 41.4545C91.8751 41.4545 91.7588 41.4836 91.6715 41.309C91.3806 40.7272 91.0024 40.0581 90.6533 39.4181C89.7224 37.7018 88.8206 36.0727 88.0351 34.2399C87.5406 33.0472 87.2206 31.709 86.9006 30.3709C86.7261 29.7309 86.5806 29.1199 86.4061 28.4799C86.7261 26.5599 87.2497 25.629 88.326 25.0763C88.6461 24.9018 88.8206 24.669 89.0824 24.2327C89.4897 23.5636 89.5188 23.6218 89.4315 23.6218L89.2861 23.5927C89.2861 23.6218 89.3151 23.6218 89.3442 23.6218C89.5479 23.709 89.8679 23.8254 90.1297 23.9127C91.1479 24.2618 91.4679 24.4654 91.817 24.8436C94.0279 27.3745 95.1624 30.3709 95.1624 33.6872C95.1624 35.3163 94.9006 37.0327 94.377 38.8363C94.0279 39.9709 93.3006 40.669 91.6424 41.4545C91.5842 41.4545 91.5261 41.4836 91.4679 41.5127L91.7588 41.4545ZM107.435 41.8036C108.512 41.7163 109.705 41.3963 111.101 40.7563C113.69 39.6218 115.028 36.9163 115.028 32.989C115.028 31.6509 114.65 30.9818 113.545 30.9818C112.905 30.9818 112.439 31.5636 112.439 32.2618C112.439 32.5236 112.468 32.7854 112.497 33.0472C112.497 33.2799 112.526 33.4836 112.526 33.7163C112.526 36.4218 111.014 39.4472 107.435 39.4472C102.926 39.4472 101.385 38.1672 101.385 34.4145C101.385 31.2727 102.839 28.7418 104.41 26.0072C104.788 25.3381 105.428 25.0763 106.475 25.0763C107.232 25.0763 107.814 25.309 108.454 25.8036C108.657 25.9781 108.977 26.2109 109.268 26.4145C110.49 27.3163 111.537 28.0727 111.537 29.6727C111.537 30.0218 111.479 30.3418 111.421 30.6036C111.392 30.9818 112.148 31.6218 112.585 31.6218C113.486 31.6218 113.719 30.8363 113.719 29.6145C113.719 28.3345 113.457 27.549 112.759 26.8218C111.159 25.1636 108.89 23.0981 106.33 23.0981C104.934 23.0981 102.694 23.3309 102.374 25.2509C102.228 26.2399 101.675 27.0254 101.035 27.9272C100.541 28.6545 99.9591 29.469 99.6682 30.2836C99.1736 31.6218 98.9409 32.9309 98.9409 34.2981C98.9409 34.909 98.97 35.4327 99.0573 35.9563C99.0863 36.1309 99.1154 36.3927 99.1154 36.6254C99.2027 37.9927 99.4354 38.5745 100.221 39.1854C102.519 41.0763 105.021 41.9781 107.435 41.8036ZM136.985 43.9854C137.916 43.9854 138.323 43.7236 138.731 42.7927L138.76 42.6763C138.76 42.269 137.741 41.7454 137.305 41.7454C137.218 41.7454 137.131 41.7454 137.043 41.7745C136.985 41.7745 136.927 41.7745 136.869 41.7745C136.549 41.7745 136.403 41.4254 136.229 39.9999C136.054 38.4872 135.851 37.8181 135.327 37.2072C135.298 37.1781 135.181 34.5309 135.181 31.389C135.181 29.9345 135.269 28.829 135.472 27.9563V27.8981C135.472 27.0254 135.24 26.1818 135.036 25.3672C134.92 24.9309 134.861 24.7272 134.803 24.4654C134.716 24.0872 134.076 23.9127 133.494 23.9127C132.331 23.9127 130.905 24.6109 130.469 25.4254C130.265 25.7745 130.12 26.0072 129.771 26.589C129.218 27.4909 128.607 28.4509 128.171 29.3527C127.734 30.2545 127.472 31.1272 127.211 32.029C127.123 32.349 127.007 32.669 126.949 32.9309C126.891 33.1054 126.861 33.2218 126.774 33.5418C126.541 34.5018 126.367 34.9672 126.28 35.0545L126.891 35.1418C126.832 35.0545 126.687 34.8218 126.571 34.6763C126.309 34.2981 126.221 34.1236 126.221 33.949C126.221 33.9199 126.221 33.8618 126.221 33.7454C126.251 33.629 126.251 33.5709 126.251 33.4836C126.251 32.8727 125.96 32.2909 125.669 31.7672C125.436 31.2727 125.203 30.8363 125.145 30.2545C125.029 29.2654 124.912 28.2472 124.796 27.229C124.534 25.1345 124.301 23.069 124.098 20.9745C123.981 19.9563 123.138 19.8981 122.469 19.8981C121.945 19.8981 120.985 19.8981 120.898 21.0036C120.869 21.5563 120.694 22.0218 120.491 22.5454C120.432 22.749 120.345 22.9818 120.287 23.1563C119.996 24.029 119.996 24.8436 119.996 25.6581C119.967 26.4145 119.967 27.1709 119.763 27.8399C119.065 29.9927 118.978 31.069 118.891 32.2909C118.803 33.2799 118.716 34.3563 118.309 36.1018C118.28 36.2181 118.28 36.2472 118.105 36.4218C117.814 36.7127 117.698 36.8581 117.669 37.0036C117.32 38.0509 117.058 39.0109 116.767 40.029C116.621 40.5818 116.447 41.1927 116.301 41.7454C116.272 41.8327 116.272 41.8327 116.243 41.8909C116.098 42.2109 116.069 42.3272 116.069 42.4727C116.069 42.9672 116.68 43.2872 117.349 43.2872C117.96 43.2872 118.367 42.9381 118.541 42.3272C118.629 42.0945 118.658 41.9199 118.803 41.3963C119.676 38.109 119.967 37.7599 119.705 37.8181C120.578 37.4109 120.84 36.9163 120.898 35.7236C120.898 35.5199 120.927 35.2872 120.956 35.1418C121.392 32.6399 121.567 31.2436 121.8 29.7018C121.945 28.509 122.149 27.229 122.44 25.3672C122.469 25.1636 122.469 25.0181 122.498 24.7563C122.527 24.4945 122.527 24.2327 122.614 23.9709H121.771L121.829 24.2327C122.091 27.6363 122.527 31.2145 123.661 34.5599C123.749 34.8218 123.865 35.1418 123.952 35.4036C124.272 36.3054 124.563 37.0909 124.563 37.9054C124.563 38.1672 124.563 38.2545 124.534 38.3127C124.534 38.5163 124.505 38.6618 124.505 38.8363C124.476 39.0109 124.476 39.0981 124.476 39.2145C124.476 39.8836 125.232 40.7563 125.901 40.7563C126.891 40.7563 127.443 39.8545 128.025 37.7599C128.171 37.2945 128.258 36.9745 128.491 36.189C128.869 34.8509 129.247 33.4836 129.596 32.1745C130.149 29.9345 131.371 28.189 132.709 26.3272C132.883 26.0654 132.912 26.0945 132.854 26.0945C132.389 26.0945 132.796 25.3963 132.796 27.7527C132.796 28.6545 132.738 29.6436 132.68 30.6909C132.592 31.8254 132.534 33.0472 132.534 34.2109C132.534 35.9563 132.68 37.2363 133 38.3709C133.116 38.8945 133.261 39.4763 133.349 39.9709C133.872 42.269 134.251 43.9854 136.985 43.9854ZM143.907 43.0545L143.966 42.9963C144.024 42.8799 144.024 42.8509 144.111 42.7054C144.315 42.269 144.373 42.0654 144.402 41.8618C144.402 41.6872 144.431 41.5709 144.431 41.3381C144.431 40.8727 144.46 40.6399 144.547 40.5236C144.693 40.3199 144.809 40.0581 144.809 39.8545C144.809 39.6799 144.751 39.5927 144.606 39.4763C144.577 39.4472 144.518 39.3018 144.489 38.9818C144.373 38.3418 144.082 38.0509 143.413 38.0509C142.657 38.0509 142.075 38.3709 142.075 38.9236C142.075 38.9527 142.162 38.9236 142.046 39.0109C141.784 39.1563 141.638 39.2727 141.638 39.5054C141.638 39.6218 141.667 39.7381 141.697 39.9709C141.755 40.1454 141.755 40.2327 141.755 40.3199C141.755 40.4363 141.755 40.5527 141.697 40.7854C141.667 41.0763 141.638 41.2218 141.638 41.3672C141.638 42.5309 142.046 43.4036 142.977 43.4036C143.355 43.4036 143.733 43.2581 143.907 43.0545ZM150.942 42.8218C151.35 42.8218 151.757 42.6181 151.99 42.2981L151.961 41.9199L151.931 41.8909V42.2981C152.164 42.0654 152.281 41.8327 152.281 41.5709C152.281 41.309 152.193 41.1345 152.019 40.9599C152.019 40.8727 151.99 40.7854 151.99 40.669C151.961 40.5236 151.961 40.4363 151.961 40.349C151.961 40.2909 151.961 40.2618 151.99 40.2036C152.019 40.029 152.019 39.9709 152.019 39.8836C152.019 39.3309 151.931 38.7781 151.844 38.2254C151.873 38.1672 151.902 38.1381 151.931 38.0799C152.106 37.7309 152.251 37.4399 152.455 37.3236C152.921 37.0036 153.27 36.5963 153.386 36.1018C153.531 35.6363 153.648 35.2581 153.91 34.4436C154.055 34.0072 154.201 33.5418 154.317 33.1054C154.579 33.1636 154.811 33.1927 155.073 33.2218C155.713 33.2799 156.441 33.5418 157.197 33.7745C157.575 33.8909 157.837 33.9781 158.041 34.0363C158.302 34.7636 158.477 36.189 158.651 37.6727C159.03 40.8727 159.291 41.9781 159.844 42.5018C159.961 42.6472 160.31 42.7345 160.601 42.7345C161.241 42.7345 161.793 42.3272 161.793 41.8036C161.793 41.1927 161.473 39.9418 161.182 39.4472C161.037 38.7199 160.979 37.9636 160.891 37.1781C160.833 36.2181 160.746 35.2581 160.484 34.2981C160.833 34.1236 161.124 33.8036 161.124 33.4836C161.124 32.8727 160.484 32.6109 160.019 32.4945C159.699 31.1854 159.321 30.1381 158.797 29.149C158.681 28.9454 158.622 28.7127 158.535 28.3927C158.273 27.2581 157.488 25.0472 157.051 23.8545C157.022 23.7672 156.993 23.6509 156.906 23.4472C156.761 23.0109 156.702 22.7781 156.702 22.5454C156.79 22.3709 156.848 22.1963 156.848 22.0509C156.848 21.3818 156.091 20.9163 155.306 21.0327L155.83 21.3236V21.2363C155.83 21.1781 155.83 21.1199 155.859 21.0036C155.917 20.829 155.917 20.7709 155.917 20.6545C155.917 20.0436 155.422 19.5781 154.782 19.5781C153.968 19.5781 153.531 20.1309 153.531 21.0327C153.531 21.6727 153.735 22.1963 154.23 22.749C154.288 22.8072 154.375 22.9818 154.491 23.389C154.521 23.4763 154.55 23.5345 154.579 23.6509C155.161 25.1345 155.742 26.9381 156.266 28.829C156.411 29.4399 156.702 30.109 156.993 30.7199C157.313 31.4763 157.459 31.8254 157.604 32.2909L158.128 31.9127C157.982 31.8836 157.779 31.7963 157.575 31.7381C156.964 31.5636 156.382 31.3599 155.684 31.2727C155.422 31.2436 155.161 31.1854 154.87 31.0981C155.102 30.0799 155.335 29.0909 155.51 28.1309C155.568 27.8109 155.626 27.5781 155.742 27.2581C155.888 26.8509 156.062 26.3563 156.062 25.9199C156.062 25.2509 155.655 24.7563 155.015 24.7563C154.666 24.7563 154.288 24.9309 154.171 25.2218C153.502 26.5309 152.891 29.2945 152.63 30.7781L153.211 30.5745C153.124 30.5454 152.95 30.4581 152.804 30.3999C152.455 30.2545 152.048 30.0799 151.611 30.0799C151.03 30.0799 150.535 30.4872 150.535 31.0109C150.535 31.7381 151.524 32.1745 152.164 32.4363C151.873 33.4836 151.553 34.4727 151.204 35.4909L151.233 35.4618C151.175 35.4618 151.117 35.4909 151.059 35.5199L151.699 35.7818C151.699 34.9672 151.233 34.3563 150.477 34.3563C149.895 34.3563 149.401 34.7927 149.401 35.3163C149.401 35.7236 149.459 36.1599 149.488 36.5381C149.546 36.9163 149.575 37.2945 149.575 37.6727C149.517 37.8181 149.488 37.9636 149.488 38.0799C149.488 38.2545 149.546 38.429 149.691 38.6618C149.721 38.749 149.721 38.749 149.721 38.8072C149.721 38.9527 149.721 39.069 149.691 39.2145C149.662 39.4472 149.662 39.5636 149.662 39.709C149.662 40.5818 149.75 43.4909 150.564 41.6581L149.808 41.9199C149.895 42.4436 150.39 42.8218 150.942 42.8218ZM181.59 36.7127C180.019 34.8799 176.411 32.2618 173.444 30.7781C173.328 30.7199 173.124 30.6618 172.891 30.5745C173.095 30.3418 173.502 29.8472 174.259 28.9745C176.237 26.7927 176.964 25.8618 176.964 25.4836C176.964 24.4945 174.87 23.9127 172.048 23.9127C170.681 23.9127 168.673 23.9709 167.335 24.6399C166.608 24.989 165.531 26.269 165.531 26.7636C165.531 27.1999 166.055 27.8399 166.521 27.8399C166.928 27.8399 167.248 27.6654 167.539 27.3163C167.713 27.1127 167.713 27.1999 167.481 27.1999C167.451 27.1999 168.237 29.4399 168.237 29.5563C168.237 30.4872 168.47 30.9236 169.226 31.3599C169.255 31.3599 169.953 33.5999 170.681 36.3927C170.913 37.3818 171.03 37.789 171.117 38.0799C170.942 38.2545 170.768 38.4872 170.739 38.6618C170.651 39.3018 171.437 39.9999 172.135 39.9418C173.095 39.8836 173.561 39.1272 173.561 37.9636C173.561 37.1781 172.31 33.2799 172.019 32.5236L172.048 32.6109C172.048 32.5818 172.019 32.5818 172.019 32.5527C172.281 32.669 172.571 32.7854 172.833 32.9018C174.113 33.4254 174.637 33.6581 175.277 34.0654C175.539 34.2109 176.15 34.7054 177.575 35.9854C179.408 37.6145 180.513 38.6036 181.124 38.6036C181.619 38.6036 182.084 38.2254 182.084 37.7599C182.084 37.469 181.881 37.0618 181.59 36.7127ZM170.768 29.149C170.593 29.149 170.419 29.0036 170.273 28.6545C170.215 28.5381 170.07 28.2763 169.953 28.0727C169.459 27.0545 169.255 26.589 169.255 26.3854C169.255 26.269 169.633 26.2109 170.971 26.1818C171.35 26.1527 171.757 26.1527 172.048 26.1236C172.164 26.1236 172.281 26.1236 172.426 26.1236C172.571 26.0945 172.775 26.0945 172.95 26.0945C173.357 26.0945 173.531 26.1236 173.561 26.1818C171.437 28.7709 171.03 29.149 170.768 29.149ZM194.291 41.1636C194.96 41.1054 195.396 40.4072 195.396 39.6509C195.396 39.5636 195.396 39.5054 195.367 39.389C195.367 39.2727 195.367 39.2145 195.367 39.1854C195.309 38.3999 195.251 37.6436 195.193 36.8581C195.076 35.1418 194.96 33.3963 194.727 31.6799C194.582 30.6036 194.291 29.4981 194 28.4218C193.796 27.7527 193.622 27.1418 193.476 26.4145C193.476 26.3854 193.476 26.3563 193.476 26.2981C193.476 25.8618 193.942 25.6872 195.687 25.3672C196.938 25.1636 198.538 24.9018 198.538 23.9709C198.538 23.3309 197.956 22.9527 197.083 22.9527C196.182 22.9527 195.193 23.2145 194.291 23.4763C193.883 23.5636 193.476 23.6799 193.127 23.7672C192.865 23.7381 192.545 23.4181 192.167 23.0399C191.614 22.4872 191.236 22.2254 190.742 22.2254C190.625 22.2254 190.422 22.2545 190.218 22.3127C190.102 22.3418 189.956 22.3709 189.898 22.3709L189.549 22.7781C189.549 22.8072 189.578 22.8654 189.636 22.9527C189.782 23.389 190.014 23.7672 190.247 23.9418C190.305 23.9999 190.393 24.0581 190.451 24.1163C190.713 24.3199 190.742 24.3781 190.742 24.4072C190.742 24.5236 189.549 24.7854 188.531 24.7854C187.803 24.7854 187.018 24.5818 186.174 24.349C185.505 24.1454 185.214 24.0872 184.807 23.9999C184.283 23.9709 183.673 24.3199 183.673 24.7854C183.673 26.1236 187.833 26.7636 189.753 26.7636C189.985 26.7636 190.189 26.7345 190.509 26.6763C190.742 26.6181 190.916 26.589 191.033 26.589C191.178 26.589 191.265 26.7345 191.323 27.549C191.353 27.8399 191.353 27.9854 191.382 28.1599C192.371 31.1854 192.865 34.4436 192.865 38.1381C192.865 38.2836 192.865 38.429 192.836 38.6036C192.836 38.8072 192.807 39.0109 192.807 39.2436C192.807 40.5818 193.214 41.2799 194.291 41.1636Z" fill="#201F1E"/>
</g>
<defs>
<clipPath id="clip0_111_5">
<rect width="224" height="64" fill="white"/>
</clipPath>
</defs>
</svg>
