<svg width="224" height="64" viewBox="0 0 224 64" fill="none" xmlns="http://www.w3.org/2000/svg">
<g clip-path="url(#clip0_111_48)">
<path d="M192 0H32C14.3269 0 0 14.3269 0 32C0 49.6731 14.3269 64 32 64H192C209.673 64 224 49.6731 224 32C224 14.3269 209.673 0 192 0Z" fill="#B8FF59"/>
<path d="M123.27 41.6203C119.974 41.6203 118.342 39.6363 117.99 36.7883H114.982C115.334 40.6603 117.734 44.0523 123.238 44.0523C127.686 44.0523 131.622 41.7803 131.622 37.1083C131.622 34.6443 130.662 32.4043 127.206 31.2843C129.638 30.2923 130.982 28.3083 130.982 25.9083C130.982 21.6523 127.462 20.0203 123.462 20.0203C118.598 20.0203 115.686 22.8683 115.334 26.9643H118.342C118.598 24.3083 120.294 22.4523 123.398 22.4523C125.862 22.4523 127.91 23.7643 127.91 26.2283C127.91 28.9483 125.798 30.0683 121.734 30.0683H121.35V32.7243H121.83C125.542 32.7243 128.518 33.8123 128.518 37.1403C128.518 40.0523 126.342 41.6203 123.27 41.6203Z" fill="#201F1E"/>
<path d="M94.9253 30.9032V33.3992L111.341 40.5352V37.4312L98.5733 32.1512L111.341 26.7752V23.6392L94.9253 30.9032Z" fill="#201F1E"/>
</g>
<defs>
<clipPath id="clip0_111_48">
<rect width="224" height="64" fill="white"/>
</clipPath>
</defs>
</svg>
