<svg width="224" height="64" viewBox="0 0 224 64" fill="none" xmlns="http://www.w3.org/2000/svg">
<g clip-path="url(#clip0_111_2)">
<path d="M192 0H32C14.3269 0 0 14.3269 0 32C0 49.6731 14.3269 64 32 64H192C209.673 64 224 49.6731 224 32C224 14.3269 209.673 0 192 0Z" fill="#B8FF59"/>
<path d="M192.959 24.7272H190.303V33.4312C190.303 36.6312 188.607 38.8072 186.175 38.8072C185.567 38.8072 184.607 38.6792 183.775 38.3272V40.7912C184.255 41.0472 185.023 41.2072 185.759 41.2072C187.551 41.2072 189.343 40.1832 190.079 38.7112H190.367V40.8872H192.959V24.7272ZM176.197 24.2152C173.605 24.2152 171.717 25.2392 170.565 27.0952H170.277V24.7272H167.621V35.4472C167.621 39.1272 170.277 41.4952 174.469 41.4952C178.533 41.4952 181.189 39.3192 181.189 35.8952H178.501C178.533 37.9112 176.933 39.0952 174.501 39.0952C171.845 39.0952 170.277 37.6872 170.277 35.5112V34.8712L174.757 34.3272C179.557 33.7832 181.989 31.6712 181.989 28.8232C181.989 26.0392 179.685 24.2152 176.197 24.2152ZM175.813 26.4232C177.989 26.4232 179.333 27.3512 179.333 28.8872C179.333 30.3912 178.053 31.6712 174.757 32.0872L170.277 32.5992V31.1592C170.277 28.4392 172.517 26.4232 175.813 26.4232ZM164.461 24.7272H149.869V27.1272H160.077V27.4472L150.189 39.7352V40.8872H164.141V38.4872H154.509V38.1992L164.461 25.8792V24.7272ZM138.588 24.0872C133.532 24.0872 129.916 27.7032 129.916 32.8232C129.916 37.9112 133.532 41.5272 138.588 41.5272C143.676 41.5272 147.26 37.9112 147.26 32.8232C147.26 27.7032 143.676 24.0872 138.588 24.0872ZM138.588 26.4872C142.108 26.4872 144.604 29.1432 144.604 32.8232C144.604 36.4712 142.108 39.1272 138.588 39.1272C135.1 39.1272 132.572 36.4712 132.572 32.8232C132.572 29.1432 135.1 26.4872 138.588 26.4872ZM118.056 24.0872C113 24.0872 109.384 27.7032 109.384 32.8232C109.384 37.9112 113 41.5272 118.056 41.5272C123.144 41.5272 126.728 37.9112 126.728 32.8232C126.728 27.7032 123.144 24.0872 118.056 24.0872ZM118.056 26.4872C121.576 26.4872 124.072 29.1432 124.072 32.8232C124.072 36.4712 121.576 39.1272 118.056 39.1272C114.568 39.1272 112.04 36.4712 112.04 32.8232C112.04 29.1432 114.568 26.4872 118.056 26.4872ZM105.333 24.7272H102.677V34.3912C102.677 37.2392 100.949 39.1272 98.3251 39.1272C95.8291 39.1272 94.1651 37.2392 94.1651 34.3912V24.7272H91.5091V34.3912C91.5091 37.1432 89.6851 39.1272 87.0931 39.1272C84.6611 39.1272 82.9011 37.1432 82.9011 34.3912V24.7272H80.2451V34.3592C80.2451 38.5512 82.9651 41.4952 86.7731 41.4952C89.2051 41.4952 91.0611 40.2792 92.1811 38.3912H92.4691C93.3971 40.2792 95.4771 41.5272 97.7491 41.5272C99.8611 41.5272 101.557 40.4072 102.453 38.7432H102.773V40.8872H105.333V24.7272ZM74.7175 24.3112C73.6936 24.3112 72.9576 25.0472 72.9576 26.0712C72.9576 27.0952 73.6936 27.8312 74.7175 27.8312C75.7736 27.8312 76.4776 27.0952 76.4776 26.0712C76.4776 25.0472 75.7736 24.3112 74.7175 24.3112ZM64.3836 24.2152C61.7916 24.2152 59.9036 25.2392 58.7516 27.0952H58.4636V24.7272H55.8076V35.4472C55.8076 39.1272 58.4636 41.4952 62.6556 41.4952C66.7196 41.4952 69.3756 39.3192 69.3756 35.8952H66.6876C66.7196 37.9112 65.1196 39.0952 62.6876 39.0952C60.0316 39.0952 58.4636 37.6872 58.4636 35.5112V34.8712L62.9436 34.3272C67.7436 33.7832 70.1756 31.6712 70.1756 28.8232C70.1756 26.0392 67.8716 24.2152 64.3836 24.2152ZM63.9996 26.4232C66.1756 26.4232 67.5196 27.3512 67.5196 28.8872C67.5196 30.3912 66.2396 31.6712 62.9436 32.0872L58.4636 32.5992V31.1592C58.4636 28.4392 60.7036 26.4232 63.9996 26.4232ZM51.208 24.7272H48.552V33.4312C48.552 36.6312 46.856 38.8072 44.424 38.8072C43.816 38.8072 42.856 38.6792 42.024 38.3272V40.7912C42.504 41.0472 43.272 41.2072 44.008 41.2072C45.8 41.2072 47.592 40.1832 48.328 38.7112H48.616V40.8872H51.208V24.7272ZM32.7583 24.1192C31.9583 24.1192 30.9023 24.2792 30.1343 24.5352V26.6792C30.7423 26.4872 31.5743 26.3592 32.0543 26.3592C33.5903 26.3592 34.5503 27.4472 34.5503 28.9832V38.7752H30.3903V40.8872H34.5503L34.5183 46.1032H36.5983L37.2063 40.8872H39.8303V38.7752H37.2063V28.8872C37.2063 26.0392 35.4783 24.1192 32.7583 24.1192Z" fill="#201F1E"/>
</g>
<defs>
<clipPath id="clip0_111_2">
<rect width="224" height="64" fill="white"/>
</clipPath>
</defs>
</svg>
