<svg width="224" height="66" viewBox="0 0 224 66" fill="none" xmlns="http://www.w3.org/2000/svg">
<g clip-path="url(#clip0_40_94)">
<path d="M192 0H32C14.3269 0 0 14.7746 0 33C0 51.2254 14.3269 66 32 66H192C209.673 66 224 51.2254 224 33C224 14.7746 209.673 0 192 0Z" fill="#B8FF59"/>
<path d="M31.0422 42.0001H33.6982V33.0241C33.6982 29.7241 35.3942 27.4801 37.8262 27.4801C38.4342 27.4801 39.3942 27.6121 40.2262 27.9751V25.4341C39.7462 25.1701 38.9782 25.0051 38.2422 25.0051C36.4502 25.0051 34.6582 26.0611 33.9222 27.5791H33.6342V25.3351H31.0422V42.0001ZM47.8041 42.5281C50.3961 42.5281 52.2841 41.4721 53.4361 39.5581H53.7241V42.0001H56.3801V30.9451C56.3801 27.1501 53.7241 24.7081 49.5321 24.7081C45.4681 24.7081 42.8121 26.9521 42.8121 30.4831H45.5001C45.4681 28.4041 47.0681 27.1831 49.5001 27.1831C52.1561 27.1831 53.7241 28.6351 53.7241 30.8791V31.5391L49.2441 32.1001C44.4441 32.6611 42.0121 34.8391 42.0121 37.7761C42.0121 40.6471 44.3161 42.5281 47.8041 42.5281ZM48.1881 40.2511C46.0121 40.2511 44.6681 39.2941 44.6681 37.7101C44.6681 36.1591 45.9481 34.8391 49.2441 34.4101L53.7241 33.8821V35.3671C53.7241 38.1721 51.4841 40.2511 48.1881 40.2511ZM59.5397 42.0001H74.1317V39.5251H63.9237V39.1951L73.8117 26.5231V25.3351H59.8597V27.8101H69.4917V28.1071L59.5397 40.8121V42.0001ZM85.4127 42.6601C90.4687 42.6601 94.0847 38.9311 94.0847 33.6511C94.0847 28.4041 90.4687 24.6751 85.4127 24.6751C80.3247 24.6751 76.7407 28.4041 76.7407 33.6511C76.7407 38.9311 80.3247 42.6601 85.4127 42.6601ZM85.4127 40.1851C81.8927 40.1851 79.3967 37.4461 79.3967 33.6511C79.3967 29.8891 81.8927 27.1501 85.4127 27.1501C88.9007 27.1501 91.4287 29.8891 91.4287 33.6511C91.4287 37.4461 88.9007 40.1851 85.4127 40.1851ZM105.944 42.6601C111 42.6601 114.616 38.9311 114.616 33.6511C114.616 28.4041 111 24.6751 105.944 24.6751C100.856 24.6751 97.2719 28.4041 97.2719 33.6511C97.2719 38.9311 100.856 42.6601 105.944 42.6601ZM105.944 40.1851C102.424 40.1851 99.9279 37.4461 99.9279 33.6511C99.9279 29.8891 102.424 27.1501 105.944 27.1501C109.432 27.1501 111.96 29.8891 111.96 33.6511C111.96 37.4461 109.432 40.1851 105.944 40.1851ZM118.667 42.0001H121.323V32.0341C121.323 29.0971 123.051 27.1501 125.675 27.1501C128.171 27.1501 129.835 29.0971 129.835 32.0341V42.0001H132.491V32.0341C132.491 29.1961 134.315 27.1501 136.907 27.1501C139.339 27.1501 141.099 29.1961 141.099 32.0341V42.0001H143.755V32.0671C143.755 27.7441 141.035 24.7081 137.227 24.7081C134.795 24.7081 132.939 25.9621 131.819 27.9091H131.531C130.603 25.9621 128.523 24.6751 126.251 24.6751C124.139 24.6751 122.443 25.8301 121.547 27.5461H121.227V25.3351H118.667V42.0001ZM149.283 42.4291C150.307 42.4291 151.043 41.6701 151.043 40.6141C151.043 39.5581 150.307 38.7991 149.283 38.7991C148.227 38.7991 147.523 39.5581 147.523 40.6141C147.523 41.6701 148.227 42.4291 149.283 42.4291ZM159.616 42.5281C162.208 42.5281 164.096 41.4721 165.248 39.5581H165.536V42.0001H168.192V30.9451C168.192 27.1501 165.536 24.7081 161.344 24.7081C157.28 24.7081 154.624 26.9521 154.624 30.4831H157.312C157.28 28.4041 158.88 27.1831 161.312 27.1831C163.968 27.1831 165.536 28.6351 165.536 30.8791V31.5391L161.056 32.1001C156.256 32.6611 153.824 34.8391 153.824 37.7761C153.824 40.6471 156.128 42.5281 159.616 42.5281ZM160 40.2511C157.824 40.2511 156.48 39.2941 156.48 37.7101C156.48 36.1591 157.76 34.8391 161.056 34.4101L165.536 33.8821V35.3671C165.536 38.1721 163.296 40.2511 160 40.2511ZM172.793 42.0001H175.449V33.0241C175.449 29.7241 177.145 27.4801 179.577 27.4801C180.185 27.4801 181.145 27.6121 181.977 27.9751V25.4341C181.497 25.1701 180.729 25.0051 179.993 25.0051C178.201 25.0051 176.409 26.0611 175.673 27.5791H175.385V25.3351H172.793V42.0001ZM191.242 42.6271C192.042 42.6271 193.098 42.4621 193.866 42.1981V39.9871C193.258 40.1851 192.426 40.3171 191.946 40.3171C190.41 40.3171 189.45 39.1951 189.45 37.6111V27.5131H193.61V25.3351H189.45L189.482 19.9561H187.402L186.794 25.3351H184.17V27.5131H186.794V37.7101C186.794 40.6471 188.522 42.6271 191.242 42.6271Z" fill="#201F1E"/>
</g>
<defs>
<clipPath id="clip0_40_94">
<rect width="224" height="66" fill="white"/>
</clipPath>
</defs>
</svg>
