<svg width="224" height="64" viewBox="0 0 224 64" fill="none" xmlns="http://www.w3.org/2000/svg">
<g clip-path="url(#clip0_111_8)">
<path d="M192 0H32C14.3269 0 0 14.3269 0 32C0 49.6731 14.3269 64 32 64H192C209.673 64 224 49.6731 224 32C224 14.3269 209.673 0 192 0Z" fill="#B8FF59"/>
<path d="M17.9624 42.1819H27.4009V41.7848L23.43 41.4793L23.4606 40.2575V21.2888H24.1937C28.3784 21.2888 32.8991 23.488 32.8991 28.6808C32.8991 30.7579 32.1355 32.6822 30.6999 34.0262L26.79 26.8786L26.3929 27.0619L29.8751 34.6677C28.7449 35.4008 27.3399 35.8589 25.6599 35.8589H24.9879V36.3477H25.9653C27.6148 36.3477 29.0809 36.1033 30.3333 35.6451L33.0824 41.632L31.4635 41.7542V42.1819H38.3362V41.7542C38.3362 41.7542 36.5646 41.6931 36.0148 41.4793C35.4039 41.2349 34.9762 40.8989 34.4264 40.288C33.9071 39.6771 32.8686 37.9971 32.8075 37.9055L31.3413 35.2175C34.0293 33.8735 35.4649 31.4299 35.4649 28.7113C35.4649 24.1906 31.9522 20.8 24.1937 20.8H17.9624V21.2277C17.9624 21.2277 19.3675 21.2582 19.7646 21.3804C20.4671 21.5637 20.7115 21.9913 20.8031 22.5717C20.8948 22.9688 20.8948 23.7019 20.8948 24.2822V38.1804C20.8948 38.9746 20.8948 40.0131 20.8031 40.4102C20.7115 40.9906 20.4671 41.4182 19.7646 41.6015C19.3675 41.7237 17.9624 41.7542 17.9624 41.7542V42.1819ZM54.6155 41.7542V42.1819H63.382V41.7542C63.382 41.7542 62.2824 41.7237 61.5799 41.5709C59.8693 41.2349 59.1362 39.3717 58.5864 37.936L52.1719 20.8H43.0999V21.2277C43.0999 21.2277 47.6817 21.4109 48.1093 21.4109C49.1479 21.472 49.2395 22.1746 49.0562 22.6939C48.7202 23.5797 48.2009 24.7404 47.926 25.2902L43.2526 34.912L41.7559 38.0582C41.6642 38.2109 40.9006 39.616 40.4119 40.288C39.9231 40.9295 39.4039 41.296 38.7319 41.5099C38.1515 41.6931 36.502 41.7542 36.502 41.7542V42.1819H47.1319V41.7542L40.5951 41.4793L43.6191 35.2786L52.8439 29.9331L57.1813 41.5404L54.6155 41.7542ZM43.9857 34.4844L49.942 22.2357L52.6606 29.4749L43.9857 34.4844ZM66.6139 21.1666L65.2393 32.1324L65.667 32.1935C65.667 32.1935 66.7666 25.2291 66.9804 23.7019C67.1943 22.1135 67.2248 21.7164 68.355 21.5331C69.5463 21.3499 73.4561 21.2888 73.4561 21.2888H77.5186L67.3775 37.5084C67.2859 37.6306 65.8808 39.8604 65.5143 40.288C64.4757 41.5099 63.3761 41.7542 61.8488 41.7542V42.1819H80.9092L80.8175 44.8393H81.2452L81.5506 41.8153L82.9252 30.8495L82.4975 30.7884C82.4975 30.7884 81.3979 37.7528 81.1841 39.28C80.9703 40.8684 80.9397 41.2655 79.8095 41.4488C78.6183 41.632 74.7084 41.6931 74.7084 41.6931H67.7746L77.9157 25.4735C78.0074 25.3513 79.4124 23.1215 79.779 22.6939C80.8175 21.472 81.5812 21.4415 82.3143 21.3499C83.0168 21.2582 84.0553 21.2277 84.0553 21.2277V20.8H67.2554L67.347 18.1426H66.9193L66.6139 21.1666ZM84.363 31.4604C84.363 36.6226 87.9979 42.4262 94.1681 42.4262C99.147 42.4262 102.935 37.9055 102.935 31.4604C102.935 26.2066 99.1164 20.5557 92.763 20.5557C87.8146 20.5557 84.363 24.8015 84.363 31.4604ZM101.255 34.6371C101.255 38.1804 99.5441 41.1433 95.6648 41.1433C89.6168 41.1433 86.0735 33.8735 86.0735 27.9477C86.0735 24.5571 87.5397 21.8386 91.1746 21.8386C97.6503 21.8386 101.255 29.1084 101.255 34.6371ZM103.252 31.4604C103.252 36.6226 106.887 42.4262 113.057 42.4262C118.036 42.4262 121.824 37.9055 121.824 31.4604C121.824 26.2066 118.006 20.5557 111.652 20.5557C106.704 20.5557 103.252 24.8015 103.252 31.4604ZM120.144 34.6371C120.144 38.1804 118.433 41.1433 114.554 41.1433C108.506 41.1433 104.963 33.8735 104.963 27.9477C104.963 24.5571 106.429 21.8386 110.064 21.8386C116.54 21.8386 120.144 29.1084 120.144 34.6371ZM134.604 41.7542V42.1819H143.096V41.7542C143.096 41.7542 141.691 41.7237 141.293 41.6015C140.591 41.4182 140.347 40.9906 140.255 40.4102C140.163 40.0131 140.163 39.28 140.163 38.6997V24.8015C140.163 24.0073 140.163 22.9688 140.255 22.5717C140.347 21.9913 140.591 21.5637 141.293 21.3804C141.691 21.2582 143.096 21.2277 143.096 21.2277V20.8H137.597L133.046 37.4779L127.976 20.8H122.141V21.2277C122.141 21.2277 123.547 21.2582 123.944 21.3804C124.646 21.5637 124.891 21.9913 124.982 22.5717C125.074 22.9688 125.074 24.0073 125.074 24.8015V38.6997C125.074 39.28 125.074 40.0131 124.982 40.4102C124.891 40.9906 124.646 41.4182 123.944 41.6015C123.547 41.7237 122.141 41.7542 122.141 41.7542V42.1819H128.831V41.7542L125.563 41.4793V21.6248L131.763 42.1819H132.252L137.597 22.6939V41.5099L134.604 41.7542ZM144.014 41.2349C144.014 41.9986 144.533 42.5179 145.297 42.5179C146.06 42.5179 146.579 41.9986 146.579 41.2349C146.579 40.4713 146.06 39.952 145.297 39.952C144.533 39.952 144.014 40.4713 144.014 41.2349ZM159.318 41.7542V42.1819H167.84V41.7542C167.84 41.7542 166.435 41.7237 166.038 41.6015C165.305 41.4182 165.091 40.9906 164.969 40.4102C164.908 40.0131 164.908 39.28 164.877 38.6997V24.2822C164.908 23.7019 164.908 22.9688 164.969 22.5717C165.091 21.9913 165.305 21.5637 166.038 21.3804C166.435 21.2582 167.84 21.2277 167.84 21.2277V20.8H154.095V21.2277C154.095 21.2277 159.959 21.3193 160.387 21.3499C161.12 21.3804 161.334 21.7469 161.334 22.1746C161.334 22.3273 161.303 22.5106 161.242 22.6633C160.876 23.5797 160.295 24.6182 160.051 25.0459L160.143 24.8626L153.117 37.7833C152.201 39.5855 150.704 41.4793 148.566 41.6931C148.26 41.7237 147.894 41.7542 147.497 41.7542V42.1819H154.4V41.7542L151.62 41.5404L154.858 35.6451H162.311V41.5099L159.318 41.7542ZM155.133 35.1564L162.311 21.9608V35.1564H155.133ZM183.892 38.4859L179.891 31.0939C182.823 30.3608 184.809 28.5891 184.809 26.176C184.809 24.3739 183.282 20.8 175.004 20.8H168.436V21.2277C168.436 21.2277 169.842 21.2582 170.239 21.3804C170.941 21.5637 171.186 21.9913 171.277 22.5717C171.369 22.9688 171.369 23.7019 171.369 24.2822V38.1804C171.369 38.9746 171.369 40.0131 171.277 40.4102C171.186 40.9906 170.941 41.4182 170.239 41.6015C169.842 41.7237 168.436 41.7542 168.436 41.7542V42.1819H177.875V41.7848L173.904 41.4793L173.935 40.2575V21.2888H174.973C179.158 21.2888 182.243 22.8466 182.243 26.2371C182.243 29.0168 180.044 30.9717 176.775 30.9717H175.951V31.4604H176.745C177.57 31.4604 178.364 31.3993 179.097 31.2771L183.862 41.632L182.243 41.7542V42.1819H189.116V41.7542C189.116 41.7542 187.344 41.6931 186.794 41.4793C186.183 41.2349 185.756 40.8989 185.206 40.288C184.687 39.6771 183.587 37.9055 183.587 37.9055L183.892 38.4859ZM187.763 20.8306L187.855 18.1731H187.427L187.091 21.1971L185.747 32.1629L186.175 32.224C186.175 32.224 186.694 28.9862 186.908 27.4589C187.549 22.8771 188.466 21.4109 191.703 21.3499C192.345 21.3499 193.475 21.3193 193.475 21.3193H195.063V38.8524C195.063 39.3717 195.002 40.1353 194.941 40.5019C194.85 41.0517 194.666 41.4488 193.933 41.6626C193.567 41.7542 192.223 41.7848 192.223 41.7848V42.1819H200.409V41.7542L197.629 41.5404V21.2888H199.218C199.218 21.2888 200.348 21.3193 200.989 21.3193C204.227 21.3804 205.143 22.8466 205.785 27.4284C205.999 28.9557 206.518 32.1935 206.518 32.1935L206.946 32.1324L205.602 21.1666L205.266 18.1426H204.838L204.93 20.8H195.063L187.763 20.8306Z" fill="#201F1E"/>
</g>
<defs>
<clipPath id="clip0_111_8">
<rect width="224" height="64" fill="white"/>
</clipPath>
</defs>
</svg>
