<svg width="117" height="83" viewBox="0 0 117 83" fill="none" xmlns="http://www.w3.org/2000/svg">
<path d="M114.553 13.1569C113.207 8.09174 109.244 4.09912 104.208 2.74387C95.0869 0.286866 58.5 0.286865 58.5 0.286865C58.5 0.286865 21.9131 0.286866 12.7871 2.74387C7.75612 4.09912 3.79275 8.08686 2.44725 13.1569C0 22.3414 0 41.5001 0 41.5001C0 41.5001 0 60.6589 2.44725 69.8434C3.79275 74.9085 7.75613 78.9011 12.792 80.2564C21.9131 82.7134 58.5 82.7134 58.5 82.7134C58.5 82.7134 95.0869 82.7134 104.213 80.2564C109.244 78.9011 113.207 74.9134 114.558 69.8434C117 60.6589 117 41.5001 117 41.5001C117 41.5001 117 22.3414 114.553 13.1569ZM46.5367 58.899V24.1012L77.1127 41.5001L46.5367 58.899Z" fill="#FE5555"/>
</svg>
